<svg width="58" height="58" viewBox="0 0 58 58" fill="none" xmlns="http://www.w3.org/2000/svg">
<mask id="mask0_23_94" style="mask-type:luminance" maskUnits="userSpaceOnUse" x="4" y="30" width="12" height="24">
<path d="M4.98303 30.9848H15.5029V53.9994H4.98303V30.9848Z" fill="white"/>
</mask>
<g mask="url(#mask0_23_94)">
<path d="M14.814 31.1625C14.4264 31.002 13.9786 31.0896 13.6786 31.3873L10.2496 34.8186L6.82024 31.3892C6.52251 31.0915 6.07242 31.0038 5.6848 31.1643C5.29557 31.3229 5.04126 31.704 5.04126 32.125V52.9582C5.04126 53.5328 5.50801 53.9995 6.08292 53.9995H14.4163C14.9912 53.9995 15.458 53.5327 15.458 52.9578V32.1246C15.458 31.704 15.2036 31.323 14.814 31.1625Z" fill="white"/>
</g>
<mask id="mask1_23_94" style="mask-type:luminance" maskUnits="userSpaceOnUse" x="17" y="22" width="12" height="32">
<path d="M17.4877 22.7476H28.0075V53.9994H17.4877V22.7476Z" fill="white"/>
</mask>
<g mask="url(#mask1_23_94)">
<path d="M23.4869 23.0542C23.0807 22.648 22.4205 22.648 22.0142 23.0542L17.8475 27.2209C17.6517 27.4167 17.5413 27.6814 17.5413 27.9586V52.9591C17.5413 53.5337 18.008 54.0004 18.5829 54.0004H26.9163C27.4912 54.0004 27.958 53.5336 27.958 52.9587V27.9582C27.958 27.681 27.8475 27.4167 27.6537 27.2209L23.4869 23.0542Z" fill="white"/>
</g>
<mask id="mask2_23_94" style="mask-type:luminance" maskUnits="userSpaceOnUse" x="29" y="18" width="12" height="36">
<path d="M29.9924 18.5793H40.5123V53.9994H29.9924V18.5793Z" fill="white"/>
</mask>
<g mask="url(#mask2_23_94)">
<path d="M35.9878 18.887C35.5815 18.4807 34.9213 18.4807 34.515 18.887L30.3484 23.0536C30.1522 23.2494 30.0421 23.5142 30.0421 23.7914V52.9581C30.0421 53.533 30.5089 53.9998 31.0838 53.9998H39.4172C39.9921 53.9998 40.4588 53.533 40.4588 52.9581V23.7914C40.4588 23.5142 40.3484 23.2498 40.1545 23.054L35.9878 18.887Z" fill="white"/>
</g>
<mask id="mask3_23_94" style="mask-type:luminance" maskUnits="userSpaceOnUse" x="42" y="14" width="12" height="40">
<path d="M42.4972 14.4111H53.017V53.9994H42.4972V14.4111Z" fill="white"/>
</mask>
<g mask="url(#mask3_23_94)">
<path d="M50.5706 14.7207C50.3749 14.5273 50.1101 14.4168 49.8329 14.4168H47.7496C47.4724 14.4168 47.208 14.5273 47.0122 14.7211L42.8456 18.8878C42.6517 19.0836 42.5413 19.3479 42.5413 19.6251V52.9581C42.5413 53.5331 43.008 53.9998 43.5829 53.9998H51.9163C52.4912 53.9998 52.958 53.533 52.958 52.9581V17.542C52.958 17.2648 52.8475 17.0004 52.6537 16.8047L50.5706 14.7207Z" fill="white"/>
</g>
<mask id="mask4_23_94" style="mask-type:luminance" maskUnits="userSpaceOnUse" x="4" y="3" width="50" height="29">
<path d="M4.98303 3.99944H53.017V31.084H4.98303V3.99944Z" fill="white"/>
</mask>
<g mask="url(#mask4_23_94)">
<path d="M51.9163 3.99944H45.6662C45.2452 3.99944 44.8642 4.25375 44.7037 4.64336C44.5432 5.03297 44.6327 5.48073 44.9285 5.77881L47.3185 8.16612L39.4162 16.068L35.9868 12.6386C35.5806 12.2324 34.9204 12.2324 34.5141 12.6386L26.9165 20.2347L23.4871 16.8034C23.0808 16.3971 22.4206 16.3971 22.0143 16.8034L10.25 28.5678L6.82059 25.1384C6.4143 24.7321 5.75412 24.7321 5.34781 25.1384C4.94151 25.5447 4.94153 26.2049 5.34781 26.6112L9.51446 30.7778C9.71644 30.9802 9.98316 31.0825 10.2499 31.0825C10.5166 31.0825 10.7833 30.9806 10.9872 30.7782L22.7496 19.0138L26.179 22.4432C26.5852 22.8495 27.2454 22.8495 27.6517 22.4432L35.2497 14.8472L38.6791 18.2766C39.0854 18.6828 39.7456 18.6828 40.1519 18.2766L48.7912 9.63888L51.1789 12.0266C51.3789 12.2266 51.6456 12.3328 51.9162 12.3328C52.0496 12.3328 52.1872 12.308 52.314 12.2538C52.704 12.0933 52.9579 11.7118 52.9579 11.2912V5.0411C52.9579 4.46618 52.4912 3.99944 51.9163 3.99944Z" fill="white"/>
</g>
</svg>
