<svg width="58" height="58" viewBox="0 0 58 58" fill="none" xmlns="http://www.w3.org/2000/svg">
<path d="M53.9757 40.8458C53.9757 42.0663 52.9771 43.0648 51.7567 43.0648H6.24245C5.022 43.0648 4.02347 42.0663 4.02347 40.8458V10.1369C4.02347 8.91641 5.022 7.91788 6.24245 7.91788H51.756C52.9764 7.91788 53.9749 8.91641 53.9749 10.1369L53.9757 40.8458Z" stroke="#5F2DEE" stroke-width="1.84927" stroke-miterlimit="10" stroke-linecap="round" stroke-linejoin="round"/>
<path d="M4.02316 39.1704H53.9757" stroke="#5F2DEE" stroke-width="1.84927" stroke-miterlimit="10" stroke-linecap="round" stroke-linejoin="round"/>
<path d="M24.1455 43.0539L19.0594 49.6185" stroke="#5F2DEE" stroke-width="1.84927" stroke-miterlimit="10" stroke-linecap="round" stroke-linejoin="round"/>
<path d="M33.8534 43.0539L38.9394 49.6185" stroke="#5F2DEE" stroke-width="1.84927" stroke-miterlimit="10" stroke-linecap="round" stroke-linejoin="round"/>
<path d="M15.1299 50.0811H42.8682" stroke="#5F2DEE" stroke-width="1.84927" stroke-miterlimit="10" stroke-linecap="round" stroke-linejoin="round"/>
<path d="M37.0296 16.6461H29.1224C28.8743 16.6461 28.642 16.5355 28.4854 16.3427L27.1425 14.6883C26.8214 14.2922 26.3445 14.0652 25.8346 14.0652L20.8972 14.065C19.9683 14.065 19.2125 14.8208 19.2125 15.7497V27.8875C19.2125 28.8164 19.9683 29.5722 20.8972 29.5722H22.7659C22.9889 32.4987 25.4343 34.8132 28.4145 34.8132C31.3948 34.8132 33.8403 32.4987 34.0632 29.5722H37.0297C37.9586 29.5722 38.7144 28.8164 38.7144 27.8875L38.7142 20.3143C38.7142 20.3129 38.715 20.3117 38.715 20.3101C38.715 20.3087 38.7142 20.3075 38.7142 20.3059V18.3304C38.7142 17.4019 37.9586 16.646 37.0295 16.646L37.0296 16.6461ZM20.897 14.9294H25.8346C26.0829 14.9294 26.315 15.0399 26.4716 15.2328L27.8145 16.8873C28.136 17.2832 28.6128 17.5103 29.1224 17.5103H37.0297C37.4819 17.5103 37.8501 17.878 37.8501 18.3304V19.8778L20.0765 19.878V15.7497C20.0765 15.2975 20.4445 14.9294 20.8969 14.9294L20.897 14.9294ZM28.4146 33.9485C25.7644 33.9485 23.6084 31.7907 23.6084 29.138C23.6084 26.4878 25.7644 24.3318 28.4146 24.3318C31.0649 24.3318 33.2209 26.4878 33.2209 29.138C33.2207 31.7907 31.0647 33.9485 28.4146 33.9485ZM37.0296 28.7076H34.0633C33.8419 25.7819 31.396 23.4677 28.4147 23.4677C25.4334 23.4677 22.9874 25.7821 22.7661 28.7076H20.8974C20.4452 28.7076 20.077 28.3394 20.077 27.8872V20.7423H37.85V27.8872C37.85 28.3394 37.4821 28.7076 37.0296 28.7076Z" fill="#5F2DEE"/>
<path d="M26.8303 30.1093L25.5803 29.1411L26.8305 28.1712C27.0191 28.025 27.0533 27.7534 26.9071 27.5648C26.7607 27.3758 26.4893 27.342 26.3007 27.4882L24.6099 28.7999C24.5042 28.8817 24.4426 29.008 24.4426 29.1415C24.4426 29.275 24.5046 29.4013 24.6101 29.4829L26.3009 30.7923C26.3797 30.8532 26.4728 30.8828 26.5653 30.8828C26.6942 30.8828 26.8221 30.8251 26.9071 30.7153C27.0537 30.5271 27.0191 30.2554 26.8303 30.1093Z" fill="#5F2DEE"/>
<path d="M29.9217 27.565C29.7756 27.7534 29.8097 28.025 29.9983 28.1714L31.2486 29.1413L29.9986 30.1095C29.81 30.2555 29.7754 30.5271 29.9215 30.7159C30.0066 30.8259 30.1345 30.8834 30.2634 30.8834C30.3558 30.8834 30.4491 30.8538 30.5278 30.7929L32.2185 29.4835C32.3243 29.4019 32.386 29.2756 32.386 29.1421C32.386 29.0086 32.3245 28.8823 32.2187 28.8005L30.528 27.4888C30.3396 27.3422 30.0681 27.376 29.9217 27.565Z" fill="#5F2DEE"/>
<path d="M29.6 26.5407C29.3829 26.4409 29.1261 26.5373 29.0274 26.7544L27.0153 31.1676C26.9162 31.3849 27.0119 31.6411 27.2291 31.7402C27.2874 31.7668 27.3483 31.7792 27.4082 31.7792C27.5723 31.7792 27.7291 31.6853 27.8015 31.5265L29.8136 27.1133C29.9131 26.8958 29.8172 26.6396 29.6 26.5407Z" fill="#5F2DEE"/>
</svg>
