<svg width="58" height="58" viewBox="0 0 58 58" fill="none" xmlns="http://www.w3.org/2000/svg">
<g clip-path="url(#clip0_16_205)">
<path d="M51.2952 44.9953H48.8957V18.6025C48.8957 17.966 48.6429 17.3556 48.1929 16.9059C47.7428 16.4558 47.1328 16.203 46.4962 16.203H32.0994V14.6032H36.0983C36.3103 14.6032 36.5139 14.5191 36.6639 14.3691C36.8139 14.219 36.898 14.0158 36.898 13.8035V11.2905C37.9121 11.029 38.7336 10.2872 39.0979 9.30536C39.4618 8.32348 39.3225 7.22569 38.7244 6.36605C38.1263 5.50642 37.1457 4.99363 36.0983 4.99363C35.0509 4.99363 34.0702 5.5064 33.4721 6.36605C32.874 7.22568 32.7347 8.32349 33.0986 9.30536C33.463 10.2872 34.2845 11.029 35.2985 11.2905V13.0038H31.2996C30.8579 13.0038 30.4995 13.3618 30.4995 13.8035V16.203H28.9001V11.2904C29.9141 11.0289 30.7356 10.2871 31.0999 9.30527C31.4639 8.32339 31.3246 7.2256 30.7265 6.36596C30.1284 5.50633 29.1473 4.99354 28.1003 4.99354C27.0529 4.99354 26.0718 5.50631 25.4737 6.36596C24.876 7.22559 24.7363 8.3234 25.1007 9.30527C25.4646 10.2871 26.2865 11.0289 27.3001 11.2904V16.203H25.7007V13.8035C25.7007 13.5916 25.6166 13.388 25.4665 13.238C25.3165 13.088 25.1129 13.0038 24.901 13.0038H20.9017V11.2905C21.9157 11.029 22.7376 10.2872 23.1015 9.30536C23.4659 8.32348 23.3262 7.22569 22.7281 6.36605C22.1304 5.50642 21.1493 4.99363 20.1019 4.99363C19.0549 4.99363 18.0739 5.5064 17.4757 6.36605C16.8776 7.22568 16.7383 8.32349 17.1023 9.30536C17.4666 10.2872 18.2882 11.029 19.3021 11.2905V13.8035C19.3021 14.0158 19.3863 14.219 19.5363 14.3691C19.6863 14.5191 19.8899 14.6032 20.1018 14.6032H24.1007V16.2026L9.70393 16.203C9.06774 16.203 8.45729 16.4558 8.0073 16.9059C7.55724 17.3556 7.30443 17.966 7.30443 18.6025V44.9953H4.90533C4.4636 44.9953 4.10522 45.3537 4.10522 45.7954V48.9946C4.10681 50.0547 4.5283 51.0711 5.278 51.8208C6.0277 52.5705 7.04412 52.9923 8.10453 52.9935H48.0945C49.1546 52.9923 50.1711 52.5705 50.9207 51.8208C51.6704 51.0711 52.0922 50.0546 52.0934 48.9946V45.7954C52.0934 45.5831 52.0089 45.3799 51.8593 45.2299C51.7093 45.0799 51.5057 44.9953 51.2937 44.9953L51.2952 44.9953ZM34.4996 8.20473C34.4996 7.78046 34.6679 7.37367 34.968 7.07361C35.268 6.77397 35.6748 6.60529 36.0991 6.60529C36.5234 6.60529 36.9301 6.77397 37.2302 7.07361C37.5302 7.37365 37.6985 7.78044 37.6985 8.20473C37.6985 8.62901 37.5303 9.03619 37.2302 9.33585C36.9302 9.63588 36.5234 9.80456 36.0991 9.80456C35.6748 9.80456 35.268 9.63588 34.968 9.33585C34.6679 9.03621 34.4996 8.62901 34.4996 8.20473ZM18.5036 8.20473C18.5036 7.78046 18.6719 7.37367 18.972 7.07361C19.272 6.77397 19.6788 6.60529 20.1031 6.60529C20.5273 6.60529 20.9341 6.77397 21.2342 7.07361C21.5342 7.37365 21.7029 7.78044 21.7029 8.20473C21.7029 8.62901 21.5342 9.03619 21.2342 9.33585C20.9342 9.63588 20.5274 9.80456 20.1031 9.80456C19.6788 9.80456 19.272 9.63588 18.972 9.33585C18.6719 9.03621 18.5036 8.62901 18.5036 8.20473ZM28.9015 18.6025V19.4022H27.3016V18.6025C27.3016 18.1608 27.66 17.8024 28.1018 17.8024C28.5435 17.8024 28.9015 18.1608 28.9015 18.6025ZM35.3 24.2012V24.2008C35.5119 24.2008 35.7155 24.2854 35.8655 24.435C36.0155 24.585 36.0997 24.7886 36.0997 25.0006V34.5983C36.0997 34.8106 36.0155 35.0138 35.8655 35.1638C35.7155 35.3138 35.5119 35.3984 35.3 35.3984H20.9031C20.4614 35.3984 20.1034 35.04 20.1034 34.5983V25.0006C20.1034 24.5588 20.4614 24.2008 20.9031 24.2008L35.3 24.2012ZM32.1008 22.6018L24.1024 22.6014V21.8013C24.1024 21.3596 24.4608 21.0016 24.9026 21.0016H31.3011C31.513 21.0016 31.7166 21.0862 31.8666 21.2358C32.0162 21.3858 32.1008 21.5894 32.1008 21.8013L32.1008 22.6018ZM26.5021 8.20503C26.5021 7.78077 26.6707 7.37397 26.9708 7.07391C27.2708 6.77427 27.6776 6.6056 28.1019 6.6056C28.5262 6.6056 28.9329 6.77427 29.233 7.07391C29.5326 7.37395 29.7013 7.78075 29.7013 8.20503C29.7013 8.62932 29.5326 9.03649 29.233 9.33615C28.933 9.63619 28.5262 9.80487 28.1019 9.80487C27.6776 9.80487 27.2708 9.63619 26.9708 9.33615C26.6707 9.03651 26.5021 8.62932 26.5021 8.20503ZM8.90685 18.6028C8.90685 18.1611 9.26483 17.8027 9.70656 17.8027H25.8499C25.755 18.0591 25.7054 18.3294 25.7026 18.6028V19.4026H24.9029C24.2663 19.4026 23.656 19.6554 23.2063 20.1054C22.7562 20.5551 22.5034 21.1655 22.5034 21.8016V22.6014L20.9036 22.6018C20.2674 22.6018 19.657 22.8546 19.2074 23.3042C18.7573 23.7543 18.5045 24.3647 18.5045 25.0009V34.5986C18.5045 35.2352 18.7573 35.8452 19.2074 36.2952C19.6571 36.7453 20.2675 36.9981 20.9036 36.9981H35.3004C35.9366 36.9981 36.5471 36.7453 36.9971 36.2952C37.4471 35.8451 37.6996 35.2351 37.6996 34.5986V25.0009C37.6996 24.3647 37.4471 23.7542 36.9971 23.3042C36.547 22.8546 35.9366 22.6018 35.3004 22.6018H33.7006V21.8016C33.7006 21.1655 33.4478 20.555 32.9982 20.1054C32.5481 19.6554 31.9377 19.4026 31.3015 19.4026H30.5014V18.6028C30.499 18.3294 30.449 18.0591 30.3546 17.8027H46.4979C46.7102 17.8027 46.9134 17.8873 47.0635 18.0373C47.2135 18.1869 47.2976 18.3905 47.2976 18.6028V44.9956H36.1002C35.6585 44.9956 35.3005 45.354 35.3005 45.7957V47.3951C35.3005 47.6075 35.216 47.8107 35.0663 47.9607C34.9163 48.1107 34.7127 48.1949 34.5008 48.1949H21.7042C21.2625 48.1949 20.9041 47.8369 20.9041 47.3951V45.7957C20.9041 45.5834 20.82 45.3802 20.6699 45.2302C20.5199 45.0802 20.3167 44.9956 20.1044 44.9956H8.90697L8.90685 18.6028ZM50.4961 48.9957C50.4961 49.6319 50.2432 50.2423 49.7936 50.6923C49.3435 51.142 48.7331 51.3948 48.097 51.3948H8.10694C7.47035 51.3948 6.85999 51.142 6.41031 50.6923C5.96025 50.2422 5.70744 49.6318 5.70744 48.9957V46.5962H19.3036V47.3959C19.3036 48.0325 19.5564 48.6425 20.0065 49.0925C20.4566 49.5426 21.0666 49.7954 21.7031 49.7954H34.4997C35.1359 49.7954 35.7464 49.5426 36.196 49.0925C36.646 48.6424 36.8988 48.0324 36.8988 47.3959V46.5962H50.495L50.4961 48.9957Z" fill="#5F2DEE"/>
<path d="M24.1018 30.5985C24.7384 30.5985 25.3487 30.3457 25.7984 29.8956C26.2485 29.446 26.5013 28.8355 26.5013 28.199C26.5013 27.5628 26.2485 26.9524 25.7984 26.5024C25.3488 26.0527 24.7383 25.7999 24.1018 25.7999C23.4656 25.7999 22.8552 26.0527 22.4052 26.5024C21.9555 26.9524 21.7027 27.5629 21.7027 28.199C21.7027 28.8356 21.9555 29.4459 22.4052 29.8956C22.8552 30.3457 23.4657 30.5985 24.1018 30.5985ZM24.1018 27.3993C24.4257 27.3993 24.717 27.5942 24.8408 27.893C24.9646 28.1919 24.8963 28.536 24.6674 28.7646C24.4388 28.9936 24.0947 29.0618 23.7958 28.938C23.497 28.8142 23.3021 28.5225 23.3021 28.199C23.3021 27.7573 23.6601 27.3993 24.1018 27.3993Z" fill="#5F2DEE"/>
<path d="M32.0998 30.5985C32.736 30.5985 33.3465 30.3457 33.7964 29.8956C34.2465 29.446 34.4993 28.8355 34.4993 28.199C34.4993 27.5628 34.2465 26.9524 33.7964 26.5024C33.3464 26.0527 32.7359 25.7999 32.0998 25.7999C31.4632 25.7999 30.8532 26.0527 30.4032 26.5024C29.9531 26.9524 29.7003 27.5629 29.7003 28.199C29.7003 28.8356 29.9531 29.4459 30.4032 29.8956C30.8533 30.3457 31.4633 30.5985 32.0998 30.5985ZM32.0998 27.3993C32.4233 27.3993 32.715 27.5942 32.8388 27.893C32.9626 28.1919 32.894 28.536 32.6654 28.7646C32.4364 28.9936 32.0927 29.0618 31.7938 28.938C31.495 28.8142 31.3001 28.5225 31.3001 28.199C31.3001 27.7573 31.6581 27.3993 32.0998 27.3993Z" fill="#5F2DEE"/>
<path d="M25.701 32.1987H30.4996V33.7981H25.701V32.1987Z" fill="#5F2DEE"/>
<path d="M22.5016 32.1987H24.101V33.7981H22.5016V32.1987Z" fill="#5F2DEE"/>
<path d="M32.0998 32.1987H33.6992V33.7981H32.0998V32.1987Z" fill="#5F2DEE"/>
<path d="M12.1048 21.8009H13.7042V23.4003H12.1048V21.8009Z" fill="#5F2DEE"/>
<path d="M15.3043 21.8009H16.9037V23.4003H15.3043V21.8009Z" fill="#5F2DEE"/>
<path d="M12.1048 25.0003H13.7042V26.5997H12.1048V25.0003Z" fill="#5F2DEE"/>
<path d="M15.3043 25.0003H16.9037V26.5997H15.3043V25.0003Z" fill="#5F2DEE"/>
<path d="M12.1048 28.1987H13.7042V29.7981H12.1048V28.1987Z" fill="#5F2DEE"/>
<path d="M15.3043 28.1987H16.9037V29.7981H15.3043V28.1987Z" fill="#5F2DEE"/>
<path d="M12.1048 31.3981H13.7042V32.9975H12.1048V31.3981Z" fill="#5F2DEE"/>
<path d="M15.3043 31.3981H16.9037V32.9975H15.3043V31.3981Z" fill="#5F2DEE"/>
<path d="M12.1048 34.5975H13.7042V36.1969H12.1048V34.5975Z" fill="#5F2DEE"/>
<path d="M15.3043 34.5975H16.9037V36.1969H15.3043V34.5975Z" fill="#5F2DEE"/>
<path d="M39.2982 21.8009H40.8976V23.4003H39.2982V21.8009Z" fill="#5F2DEE"/>
<path d="M42.4976 21.8009H44.097V23.4003H42.4976V21.8009Z" fill="#5F2DEE"/>
<path d="M39.2982 25.0003H40.8976V26.5997H39.2982V25.0003Z" fill="#5F2DEE"/>
<path d="M42.4976 25.0003H44.097V26.5997H42.4976V25.0003Z" fill="#5F2DEE"/>
<path d="M39.2982 28.1987H40.8976V29.7981H39.2982V28.1987Z" fill="#5F2DEE"/>
<path d="M42.4976 28.1987H44.097V29.7981H42.4976V28.1987Z" fill="#5F2DEE"/>
<path d="M39.2982 31.3981H40.8976V32.9975H39.2982V31.3981Z" fill="#5F2DEE"/>
<path d="M42.4976 31.3981H44.097V32.9975H42.4976V31.3981Z" fill="#5F2DEE"/>
<path d="M39.2982 34.5975H40.8976V36.1969H39.2982V34.5975Z" fill="#5F2DEE"/>
<path d="M42.4976 34.5975H44.097V36.1969H42.4976V34.5975Z" fill="#5F2DEE"/>
<path d="M12.1048 38.5965H44.0968V40.1959H12.1048V38.5965Z" fill="#5F2DEE"/>
<path d="M12.1048 41.7959H44.0968V43.3953H12.1048V41.7959Z" fill="#5F2DEE"/>
<g filter="url(#filter0_d_16_205)">
<path d="M39.285 26.8905L46.5677 23.6673L53.8504 26.8905C53.8504 35.693 50.0106 38.1161 46.5677 40.2011C43.1248 38.116 39.285 35.693 39.285 26.8905Z" fill="#5F2DEE"/>
</g>
</g>
<defs>
<filter id="filter0_d_16_205" x="27.285" y="13.6673" width="38.5655" height="40.5337" filterUnits="userSpaceOnUse" color-interpolation-filters="sRGB">
<feFlood flood-opacity="0" result="BackgroundImageFix"/>
<feColorMatrix in="SourceAlpha" type="matrix" values="0 0 0 0 0 0 0 0 0 0 0 0 0 0 0 0 0 0 127 0" result="hardAlpha"/>
<feOffset dy="2"/>
<feGaussianBlur stdDeviation="6"/>
<feComposite in2="hardAlpha" operator="out"/>
<feColorMatrix type="matrix" values="0 0 0 0 0 0 0 0 0 0 0 0 0 0 0 0 0 0 0.4 0"/>
<feBlend mode="normal" in2="BackgroundImageFix" result="effect1_dropShadow_16_205"/>
<feBlend mode="normal" in="SourceGraphic" in2="effect1_dropShadow_16_205" result="shape"/>
</filter>
<clipPath id="clip0_16_205">
<rect width="58" height="58" fill="white"/>
</clipPath>
</defs>
</svg>
