<svg width="58" height="58" viewBox="0 0 58 58" fill="none" xmlns="http://www.w3.org/2000/svg">
<mask id="mask0_18_2" style="mask-type:luminance" maskUnits="userSpaceOnUse" x="3" y="3" width="51" height="51">
<path d="M3.99945 3.99944H53.9995V53.9994H3.99945V3.99944Z" fill="white"/>
</mask>
<g mask="url(#mask0_18_2)">
<path fill-rule="evenodd" clip-rule="evenodd" d="M44.3828 52.0454C40.824 52.0454 37.8245 49.6074 36.9663 46.3141C36.9632 46.3025 36.9601 46.2905 36.957 46.2784C36.8988 46.0516 36.8515 45.821 36.8147 45.5864C36.8104 45.5605 36.8066 45.5345 36.8027 45.5085C36.786 45.3969 36.7713 45.2844 36.7596 45.1712C36.7593 45.1689 36.7589 45.1662 36.7589 45.1639C36.7472 45.0503 36.7391 44.9352 36.7325 44.82C36.731 44.7906 36.7294 44.7615 36.7282 44.732C36.7228 44.6165 36.7193 44.5002 36.7193 44.3831C36.7193 40.5762 39.5246 37.398 43.176 36.8162C43.1787 36.8158 43.1811 36.8154 43.1834 36.815C43.2939 36.7972 43.4055 36.7832 43.5176 36.7704C43.5346 36.7685 43.5517 36.7658 43.5687 36.7638C43.6707 36.753 43.7734 36.7456 43.8766 36.739C43.9041 36.7371 43.9312 36.734 43.9587 36.7324C44.0564 36.7274 44.1549 36.7251 44.2534 36.7235C44.2964 36.7227 44.3394 36.7204 44.3829 36.7204C48.6085 36.7204 52.0464 40.1579 52.0464 44.3831C52.0464 48.6083 48.6084 52.0454 44.3828 52.0454ZM34.8576 45.7186H5.95389V36.7007H8.03216C8.08294 36.7088 8.1345 36.7142 8.18761 36.7142H38.586C36.5596 38.249 35.1582 40.5669 34.836 43.2131C34.8341 43.2278 34.8326 43.2426 34.8306 43.2573C34.8221 43.3306 34.8143 43.4038 34.8074 43.4775C34.805 43.5031 34.8027 43.5283 34.8008 43.5539C34.795 43.6182 34.7903 43.6826 34.786 43.7469C34.7841 43.776 34.7822 43.8051 34.7806 43.8345C34.7771 43.8989 34.774 43.9636 34.7717 44.0284C34.7705 44.0555 34.7694 44.0823 34.7686 44.1094C34.7659 44.2005 34.7647 44.2916 34.7647 44.3831C34.7647 44.4843 34.7667 44.5851 34.7698 44.6855C34.7705 44.713 34.7717 44.7409 34.7729 44.7684C34.776 44.8479 34.7802 44.927 34.7853 45.0061C34.7868 45.0297 34.788 45.0534 34.7895 45.0766C34.7973 45.179 34.8058 45.2806 34.8163 45.3817C34.8171 45.3899 34.8182 45.398 34.819 45.4065C34.8287 45.4992 34.8403 45.5911 34.8527 45.6826C34.8543 45.6946 34.8554 45.7066 34.857 45.7186L34.8576 45.7186ZM9.16443 34.7472H40.1483V32.3398H9.16443V34.7472ZM5.9537 21.3682H43.3597V30.3862H41.2817C41.2305 30.378 41.179 30.3726 41.1258 30.3726H8.18784C8.13473 30.3726 8.08317 30.378 8.03239 30.3862H5.95412L5.9537 21.3682ZM9.16443 19.3876H40.1483V16.9526H9.16443V19.3876ZM5.9537 14.972H43.3597V5.95404H5.9537V14.972ZM44.5397 34.7692C44.4738 34.7552 44.4059 34.7475 44.3361 34.7475H42.1024V32.34H44.3361C44.8758 32.34 45.3131 31.9027 45.3131 31.3631V20.3917C45.3131 19.852 44.8758 19.4147 44.3361 19.4147H42.1024V16.9255H44.3361C44.8758 16.9255 45.3131 16.4882 45.3131 15.9486V4.97717C45.3131 4.43754 44.8758 4.00024 44.3361 4.00024H4.97706C4.43781 4.00024 4.00012 4.43753 4.00012 4.97717V15.9486C4.00012 16.4882 4.43781 16.9255 4.97706 16.9255H7.21084V19.4147H4.97706C4.43781 19.4147 4.00012 19.852 4.00012 20.3917V31.3631C4.00012 31.9027 4.43781 32.34 4.97706 32.34H7.21084V34.7475H4.97706C4.43781 34.7475 4.00012 35.1851 4.00012 35.7244V46.6958C4.00012 47.2354 4.43781 47.6727 4.97706 47.6727H35.3447C36.691 51.3602 40.2344 53.9995 44.3824 53.9995C49.6854 53.9995 53.9997 49.6855 53.9997 44.3833C53.9997 39.1331 49.7702 34.8532 44.5398 34.7687L44.5397 34.7692ZM11.2206 41.8907C10.8678 41.8907 10.5805 41.6038 10.5805 41.2511C10.5805 40.8983 10.8678 40.6114 11.2206 40.6114C11.5733 40.6114 11.8602 40.8983 11.8602 41.2511C11.8602 41.6038 11.5733 41.8907 11.2206 41.8907ZM11.2206 38.6575C9.79006 38.6575 8.62663 39.821 8.62663 41.2511C8.62663 42.6812 9.79006 43.8446 11.2206 43.8446C12.6507 43.8446 13.8141 42.6812 13.8141 41.2511C13.8141 39.821 12.6507 38.6575 11.2206 38.6575ZM20.3665 40.2334H17.5233C16.9841 40.2334 16.5464 40.6707 16.5464 41.2104C16.5464 41.75 16.9841 42.1873 17.5233 42.1873H20.3665C20.9057 42.1873 21.3434 41.75 21.3434 41.2104C21.3434 40.6707 20.9057 40.2334 20.3665 40.2334ZM26.815 40.2334H23.9722C23.4326 40.2334 22.9953 40.6707 22.9953 41.2104C22.9953 41.75 23.4325 42.1873 23.9722 42.1873H26.815C27.3547 42.1873 27.792 41.75 27.792 41.2104C27.792 40.6707 27.3547 40.2334 26.815 40.2334ZM11.2209 25.2516C11.5736 25.2516 11.8605 25.5385 11.8605 25.8913C11.8605 26.244 11.5736 26.5309 11.2209 26.5309C10.8681 26.5309 10.5808 26.244 10.5808 25.8913C10.5808 25.5385 10.8681 25.2516 11.2209 25.2516ZM11.2209 28.4848C12.651 28.4848 13.8144 27.3213 13.8144 25.8912C13.8144 24.4611 12.651 23.2977 11.2209 23.2977C9.79036 23.2977 8.62692 24.4611 8.62692 25.8912C8.62692 27.3213 9.79036 28.4848 11.2209 28.4848ZM17.524 26.8275H20.3669C20.9065 26.8275 21.3438 26.3902 21.3438 25.8506C21.3438 25.3113 20.9065 24.8736 20.3669 24.8736H17.524C16.9844 24.8736 16.5467 25.3113 16.5467 25.8506C16.5467 26.3902 16.9844 26.8275 17.524 26.8275ZM23.9726 26.8275H26.8154C27.3551 26.8275 27.7924 26.3902 27.7924 25.8506C27.7924 25.3113 27.3551 24.8736 26.8154 24.8736H23.9726C23.433 24.8736 22.9957 25.3113 22.9957 25.8506C22.9957 26.3902 23.4329 26.8275 23.9726 26.8275ZM11.2208 11.1172C10.868 11.1172 10.5807 10.8299 10.5807 10.4772C10.5807 10.1248 10.868 9.8375 11.2208 9.8375C11.5735 9.8375 11.8604 10.1248 11.8604 10.4772C11.8604 10.8299 11.5735 11.1172 11.2208 11.1172ZM11.2208 7.88364C9.79026 7.88364 8.62683 9.04747 8.62683 10.4772C8.62683 11.9073 9.79026 13.0707 11.2208 13.0707C12.6509 13.0707 13.8143 11.9073 13.8143 10.4772C13.8143 9.04747 12.6509 7.88364 11.2208 7.88364ZM20.3667 9.45993H17.5235C16.9843 9.45993 16.5466 9.89722 16.5466 10.4369C16.5466 10.9761 16.9843 11.4138 17.5235 11.4138H20.3667C20.9059 11.4138 21.3436 10.9761 21.3436 10.4369C21.3436 9.89723 20.9059 9.45993 20.3667 9.45993ZM26.8152 9.45993H23.9724C23.4328 9.45993 22.9955 9.89722 22.9955 10.4369C22.9955 10.9761 23.4327 11.4138 23.9724 11.4138H26.8152C27.3549 11.4138 27.7922 10.9761 27.7922 10.4369C27.7922 9.89723 27.3549 9.45993 26.8152 9.45993ZM41.7594 44.6885C42.1408 44.307 42.1408 43.6883 41.7594 43.3068L41.7311 43.2785H46.5626C47.1023 43.2785 47.5396 42.8412 47.5396 42.3016C47.5396 41.7623 47.1023 41.325 46.5626 41.325H41.7311L41.7594 41.2967C42.1408 40.9153 42.1408 40.2966 41.7594 39.9151C41.3779 39.5336 40.7596 39.5336 40.3777 39.9151L38.6816 41.6111C38.6766 41.6158 38.6727 41.6212 38.6677 41.6263C38.6506 41.6441 38.6335 41.6623 38.6176 41.6817C38.6114 41.6891 38.606 41.6972 38.6002 41.705C38.5866 41.7224 38.5731 41.7399 38.5607 41.7585C38.5564 41.7647 38.5529 41.7716 38.5486 41.7778C38.5358 41.7984 38.5227 41.8193 38.511 41.8406C38.5087 41.8453 38.5068 41.8499 38.5048 41.8542C38.4924 41.8783 38.4804 41.9023 38.4699 41.9275C38.4688 41.9302 38.468 41.9333 38.4668 41.936C38.456 41.9628 38.4463 41.9895 38.4378 42.017C38.437 42.0201 38.4362 42.0236 38.4354 42.0267C38.4273 42.0539 38.4203 42.0814 38.4145 42.1097C38.4129 42.1171 38.4126 42.1252 38.411 42.1326C38.4071 42.1562 38.4029 42.1799 38.4005 42.2043C38.3971 42.2365 38.3955 42.269 38.3955 42.3016C38.3955 42.3345 38.3971 42.3671 38.4005 42.3993C38.4029 42.4233 38.4071 42.4474 38.411 42.471C38.4126 42.4784 38.4129 42.4865 38.4145 42.4939C38.4203 42.5222 38.4273 42.5497 38.4354 42.5768C38.4362 42.5799 38.437 42.5834 38.4378 42.5865C38.4463 42.614 38.456 42.6408 38.4668 42.6675C38.468 42.6703 38.4688 42.6734 38.4699 42.6761C38.4804 42.7013 38.4924 42.7253 38.5048 42.7493C38.5068 42.7536 38.5087 42.7583 38.511 42.7629C38.5227 42.7842 38.5358 42.8052 38.5486 42.8257C38.5529 42.8319 38.5564 42.8389 38.5607 42.8451C38.5731 42.8633 38.5866 42.8812 38.6002 42.8986C38.606 42.9064 38.6114 42.9145 38.6176 42.9219C38.6335 42.9412 38.6506 42.9595 38.6677 42.9773C38.6727 42.9823 38.6766 42.9878 38.6816 42.9924L40.3777 44.6885C40.5684 44.8792 40.8185 44.9746 41.0685 44.9746C41.3186 44.9746 41.5686 44.8792 41.7594 44.6885ZM49.8539 47.2723C49.8635 47.2591 49.874 47.2459 49.8833 47.2324C49.893 47.2176 49.9015 47.2029 49.9101 47.1878C49.9174 47.1754 49.9256 47.163 49.9325 47.1502C49.9407 47.1351 49.9473 47.1199 49.9546 47.1044C49.9608 47.0909 49.9678 47.0773 49.9736 47.0637C49.9795 47.0486 49.9849 47.0335 49.9899 47.018C49.9954 47.0033 50.0012 46.9885 50.0058 46.9734C50.0105 46.9579 50.014 46.9424 50.0178 46.9269C50.0217 46.9114 50.026 46.8963 50.0291 46.8808C50.0326 46.8625 50.0349 46.8443 50.0372 46.8257C50.0392 46.8125 50.0419 46.7997 50.043 46.7862C50.0496 46.7218 50.0496 46.6575 50.043 46.5931C50.0419 46.5795 50.0392 46.5664 50.0372 46.5528C50.0349 46.5346 50.0326 46.5167 50.0291 46.4985C50.026 46.4826 50.0213 46.4675 50.0178 46.452C50.014 46.4365 50.0105 46.421 50.0058 46.4059C50.0012 46.3904 49.9954 46.3756 49.9899 46.3605C49.9845 46.3454 49.9795 46.3307 49.9736 46.3155C49.9674 46.3016 49.9608 46.288 49.9543 46.2744C49.9473 46.2593 49.9403 46.2438 49.9325 46.2291C49.9256 46.2159 49.9174 46.2035 49.9097 46.1907C49.9011 46.176 49.8926 46.1612 49.8833 46.1473C49.874 46.1329 49.8635 46.1198 49.8535 46.1062C49.8442 46.0942 49.836 46.0822 49.8263 46.0705C49.8066 46.0461 49.7856 46.0228 49.7635 46.0007C49.7627 46 49.7624 45.9996 49.762 45.9988L48.0659 44.3031C47.6844 43.9217 47.0661 43.9217 46.6842 44.3031C46.3024 44.6846 46.3024 45.3029 46.6842 45.6844L46.7125 45.7127H41.8809C41.3413 45.7127 40.904 46.15 40.904 46.6896C40.904 47.2293 41.3413 47.6666 41.8809 47.6666H46.7125L46.6842 47.6949C46.3024 48.0763 46.3024 48.6947 46.6842 49.0761C46.875 49.2669 47.125 49.3622 47.3751 49.3622C47.6251 49.3622 47.8752 49.2669 48.0659 49.0761L49.762 47.3805C49.7623 47.3797 49.7627 47.3793 49.7635 47.3785C49.7856 47.3564 49.8065 47.3332 49.8263 47.3088C49.836 47.2971 49.8445 47.2847 49.8539 47.2723Z" fill="#5F2DEE"/>
</g>
</svg>
