<svg width="58" height="58" viewBox="0 0 58 58" fill="none" xmlns="http://www.w3.org/2000/svg">
<path d="M51.1912 24.7358C50.3995 23.9578 49.471 23.3329 48.4523 22.8923C48.1858 20.9504 47.2811 19.152 45.8811 17.7797C43.6642 15.6075 40.4971 14.7077 37.4691 15.3886C37.0112 14.3268 36.3533 13.3624 35.5308 12.5493C33.3039 10.3719 30.1255 9.47133 27.0875 10.1566C25.2407 10.59 23.5762 11.5909 22.3276 13.0193C21.0791 14.4472 20.3095 16.2303 20.1265 18.1182C19.3319 17.5235 18.3511 17.2321 17.361 17.2974C16.3704 17.3623 15.4364 17.7791 14.7265 18.4726C13.767 19.4252 13.3478 20.7947 13.6102 22.1213H13.5598C11.5038 22.0992 9.50142 22.7748 7.87916 24.0378C6.25689 25.3009 5.11123 27.0767 4.62864 29.0754C3.95177 32.0789 4.87335 35.2189 7.06601 37.3802C8.77053 39.0636 11.072 40.0038 13.4679 39.9945H15.201C15.6497 39.9945 16.0133 39.6309 16.0133 39.1822C16.0133 38.7335 15.6497 38.3695 15.201 38.3695H13.4679C11.5017 38.3763 9.61299 37.6047 8.21416 36.2231C6.41779 34.4537 5.66192 31.8822 6.21541 29.4222C6.61733 27.7851 7.56232 26.3325 8.89634 25.3013C10.2299 24.2704 11.874 23.7221 13.5599 23.746H14.7713C15.0616 23.7464 15.3301 23.5916 15.4752 23.34C15.6207 23.0889 15.6207 22.7788 15.4756 22.5273C15.2128 22.0681 15.1092 21.5347 15.1801 21.0107C15.2515 20.4862 15.4934 20 15.8687 19.6271C16.3403 19.1668 16.9729 18.9096 17.6316 18.9096C18.2903 18.9096 18.9233 19.1668 19.3945 19.6271L20.3173 20.537H20.3177C20.5507 20.7668 20.8987 20.8341 21.2006 20.7084C21.5026 20.5822 21.6997 20.2875 21.7001 19.9601V19.1031C21.6803 17.4082 22.2367 15.7574 23.278 14.4206C24.3197 13.0838 25.7847 12.1404 27.4328 11.7458C29.9342 11.1769 32.5539 11.9151 34.3902 13.7062C35.2138 14.5218 35.8342 15.5191 36.2011 16.6185C36.3414 17.0382 36.7913 17.2684 37.2134 17.137C38.5147 16.7278 39.9024 16.679 41.2286 16.9963C42.555 17.3135 43.7704 17.9848 44.7456 18.9382C45.9784 20.1403 46.738 21.746 46.8854 23.4618C46.885 23.8004 47.0955 24.104 47.4128 24.2229C48.4009 24.5866 49.3011 25.1558 50.0537 25.8924C51.849 27.6625 52.6028 30.2341 52.0476 32.6933C51.6461 34.3304 50.7011 35.7833 49.3671 36.8142C48.0335 37.8451 46.3895 38.3938 44.704 38.3695H42.8233C42.3746 38.3695 42.0105 38.7335 42.0105 39.1822C42.0105 39.6309 42.3746 39.9946 42.8233 39.9946H44.704C46.76 40.0167 48.7624 39.3411 50.3846 38.0781C52.0069 36.8146 53.1525 35.0388 53.6347 33.0401C54.31 30.0359 53.3859 26.8955 51.1912 24.7358Z" fill="#5F2DEE"/>
<path d="M20.6149 28.8258C20.3069 28.5517 19.8425 28.5517 19.5345 28.8258L12.2227 35.3253C11.9707 35.5494 11.8836 35.9062 12.0034 36.2211C12.1235 36.5363 12.4255 36.7448 12.7629 36.7448H16.8249V46.4939C16.8249 46.7092 16.9104 46.916 17.0628 47.0684C17.2151 47.2208 17.422 47.3063 17.6372 47.3063H22.512C22.7272 47.3063 22.9341 47.2208 23.0864 47.0684C23.2388 46.916 23.3243 46.7092 23.3243 46.4939V36.7448H27.3863C27.7237 36.7448 28.0257 36.5363 28.1458 36.2211C28.2656 35.9062 28.1785 35.5494 27.9265 35.3253L20.6149 28.8258ZM22.5121 35.1196C22.0634 35.1196 21.6994 35.4836 21.6994 35.9323V45.6811H18.4501V35.9323C18.4501 35.7167 18.3642 35.5103 18.2119 35.3579C18.0595 35.2055 17.8531 35.1196 17.6374 35.1196H14.8997L20.0749 30.5198L25.25 35.1196H22.5121Z" fill="#5F2DEE"/>
<path d="M45.26 40.8068H41.198V31.0576C41.198 30.8423 41.1125 30.6355 40.9601 30.4831C40.8078 30.3307 40.6009 30.2453 40.3857 30.2453H35.5113C35.0626 30.2453 34.6986 30.6089 34.6986 31.0576V40.8068H30.6366C30.2996 40.8068 29.9972 41.0152 29.8771 41.3301C29.7574 41.6453 29.8444 42.0017 30.0964 42.2262L37.4082 48.7257C37.7162 48.9998 38.1806 48.9998 38.4886 48.7257L45.8004 42.2262H45.8008C46.0524 42.0017 46.1399 41.6453 46.0197 41.3301C45.9 41.0152 45.5977 40.8068 45.2602 40.8068H45.26ZM37.9482 47.0316L32.773 42.4314H35.5112C35.7264 42.4314 35.9332 42.3459 36.0856 42.1936C36.2376 42.0412 36.3235 41.8348 36.3235 41.6191V31.8699H39.5732V41.6191C39.5732 41.8348 39.6586 42.0412 39.811 42.1936C39.9634 42.3459 40.1698 42.4314 40.3855 42.4314H43.1232L37.9482 47.0316Z" fill="#5F2DEE"/>
</svg>
