<svg width="58" height="58" viewBox="0 0 58 58" fill="none" xmlns="http://www.w3.org/2000/svg">
<path d="M35.7875 22.9177H33.2181C32.7864 22.9177 32.437 23.2675 32.437 23.6989C32.437 24.1302 32.7864 24.48 33.2181 24.48H35.7875C36.2192 24.48 36.5686 24.1302 36.5686 23.6989C36.569 23.2675 36.2192 22.9177 35.7875 22.9177Z" fill="#5F2DEE"/>
<path d="M35.7875 25.6431H33.2181C32.7864 25.6431 32.437 25.9929 32.437 26.4243C32.437 26.8557 32.7864 27.2055 33.2181 27.2055H35.7875C36.2192 27.2055 36.5686 26.8557 36.5686 26.4243C36.569 25.9929 36.2192 25.6431 35.7875 25.6431Z" fill="#5F2DEE"/>
<path d="M24.2891 22.9177H21.7197C21.288 22.9177 20.9386 23.2675 20.9386 23.6989C20.9386 24.1302 21.288 24.48 21.7197 24.48H24.2891C24.7209 24.48 25.0703 24.1302 25.0703 23.6989C25.0707 23.2675 24.7209 22.9177 24.2891 22.9177Z" fill="#5F2DEE"/>
<path d="M24.2891 25.6431H21.7197C21.288 25.6431 20.9386 25.9929 20.9386 26.4243C20.9386 26.8557 21.288 27.2055 21.7197 27.2055H24.2891C24.7209 27.2055 25.0703 26.8557 25.0703 26.4243C25.0707 25.9929 24.7209 25.6431 24.2891 25.6431Z" fill="#5F2DEE"/>
<path d="M7.43506 25.4395C7.43506 29.4389 10.6845 32.6927 14.6783 32.6927C15.11 32.6927 15.4594 32.3429 15.4594 31.9115C15.4594 31.4802 15.11 31.1304 14.6783 31.1304C11.5456 31.1304 8.99734 28.5778 8.99734 25.4395C8.99734 21.7275 12.501 19.0646 15.9163 19.8978C16.2254 19.9737 16.548 19.855 16.7343 19.5975C16.9206 19.3401 16.9326 18.9959 16.7647 18.7264C13.207 13.0079 17.296 5.56289 24.0683 5.56289C28.0529 5.56289 31.4855 8.26058 32.4157 12.1229C32.4788 12.386 32.6743 12.5975 32.9306 12.6822C33.186 12.767 33.4699 12.713 33.6774 12.5391C38.0765 8.85237 44.6026 13.3703 42.7072 18.7274C42.6232 18.9644 42.6584 19.2271 42.8019 19.4334C42.9455 19.6397 43.1789 19.7644 43.43 19.7692C46.5031 19.822 49.0034 22.3654 49.0034 25.4397C49.0034 28.5775 46.4552 31.1305 43.3224 31.1305C42.8907 31.1305 42.5413 31.4803 42.5413 31.9117C42.5413 32.3431 42.8907 32.6929 43.3224 32.6929C47.3162 32.6929 50.5656 29.439 50.5656 25.4396C50.5656 21.8555 47.9015 18.8372 44.4502 18.2927C45.7467 12.2081 38.9084 7.43503 33.6078 10.6693C32.1694 6.69109 28.3935 4.00015 24.0678 4.00015C16.5946 4.00015 11.894 11.6655 14.7181 18.181C14.6906 18.1806 14.6626 18.1802 14.6342 18.1802C10.8579 18.1802 7.43448 21.2925 7.43448 25.439L7.43506 25.4395Z" fill="#5F2DEE"/>
<path d="M26.1436 49.7708C25.7874 48.2464 24.4245 47.1046 22.7934 47.1046C21.162 47.1046 19.799 48.2464 19.4433 49.7708H14.2369C13.8807 48.2464 12.5179 47.1046 10.8868 47.1046C8.98545 47.1046 7.43903 48.6509 7.43903 50.5524C7.43863 52.4537 8.98535 54.0001 10.8864 54.0001C12.5179 54.0001 13.8812 52.858 14.2369 51.3332H19.4429C19.7987 52.8579 21.162 54.0001 22.7934 54.0001C24.4249 54.0001 25.7882 52.858 26.144 51.3332H31.3507C31.7065 52.8579 33.0698 54.0001 34.7013 54.0001C36.3328 54.0001 37.6961 52.858 38.0518 51.3332H43.2586C43.6144 52.8579 44.9773 54.0001 46.6091 54.0001C48.5105 54.0001 50.0569 52.4538 50.0569 50.5524C50.0569 48.6509 48.5106 47.1046 46.6091 47.1046C44.9777 47.1046 43.6147 48.2464 43.259 49.7708H38.0518C37.6956 48.2464 36.3328 47.1046 34.7017 47.1046C33.0702 47.1046 31.7073 48.2464 31.3516 49.7708H29.5293V42.041H31.9021C32.2934 43.118 33.3116 43.8732 34.5026 43.8732C36.033 43.8732 37.2783 42.6279 37.2783 41.0971C37.2783 39.8398 36.4328 38.7872 35.2842 38.4473V36.055H36.681C37.9224 36.055 38.9326 35.0452 38.9326 33.8038L38.9318 22.1919C38.9318 20.9505 37.9216 19.9407 36.6802 19.9407H32.327C31.0857 19.9407 30.0754 20.9506 30.0754 22.1919V33.8038C30.0754 35.0452 31.0857 36.055 32.327 36.055H33.721V38.4473C32.7676 38.7295 32.026 39.5016 31.8021 40.4782H25.8581C25.8114 39.2681 24.9898 38.2646 23.8748 37.9345V36.0547H25.1818C26.4231 36.0547 27.4325 35.0448 27.4325 33.8035L27.4321 22.1916C27.4321 20.9502 26.4227 19.9404 25.1814 19.9404H20.8281C19.5868 19.9404 18.5766 20.9502 18.5766 22.1916V33.8035C18.5766 35.0449 19.5868 36.0547 20.8281 36.0547H22.3121V37.9345C21.1635 38.2743 20.3181 39.3268 20.3181 40.5847C20.3181 40.691 20.3205 40.7977 20.3324 40.8789C20.4868 42.2937 21.6737 43.3603 23.0934 43.3603C24.0884 43.3603 24.9555 42.8298 25.4457 42.0406H27.9663V49.7704L26.1436 49.7708ZM10.8861 52.4378C9.84626 52.4378 9.0007 51.5922 9.0007 50.5524C9.0007 49.513 9.84583 48.667 10.8861 48.667C11.9259 48.667 12.7715 49.5125 12.7715 50.5524C12.7715 51.5918 11.9259 52.4378 10.8861 52.4378ZM22.7928 52.4378C21.7574 52.4378 20.9158 51.5986 20.9091 50.5648C20.9091 50.5604 20.9115 50.5564 20.9115 50.552C20.9115 50.5476 20.9091 50.544 20.9091 50.5396C20.9163 49.5061 21.7574 48.6674 22.7928 48.6674C23.8326 48.6674 24.6782 49.5129 24.6782 50.5528C24.6782 51.5918 23.8327 52.4378 22.7928 52.4378ZM46.6083 48.6674C47.6481 48.6674 48.4937 49.5129 48.4937 50.5528C48.4933 51.5918 47.6482 52.4378 46.6083 52.4378C45.5685 52.4378 44.7229 51.5922 44.7229 50.5524C44.7229 49.513 45.5685 48.6674 46.6083 48.6674ZM34.7006 48.6674C35.736 48.6674 36.5776 49.5061 36.5843 50.54C36.5843 50.5444 36.5819 50.548 36.5819 50.5524C36.5819 50.5568 36.5843 50.5608 36.5843 50.5652C36.5775 51.5986 35.736 52.4378 34.7006 52.4378C33.6607 52.4378 32.8152 51.5922 32.8152 50.5524C32.8152 49.513 33.6607 48.6674 34.7006 48.6674ZM32.3263 34.4927C31.9465 34.4927 31.6375 34.1837 31.6375 33.8043V22.1913C31.6375 21.8119 31.9465 21.5029 32.3263 21.5029H36.6795C37.0593 21.5029 37.3683 21.8119 37.3683 22.1913V33.8033C37.3683 34.1827 37.0593 34.4917 36.6795 34.4917L32.3263 34.4927ZM34.5015 39.8842C35.1707 39.8842 35.7145 40.4287 35.7145 41.0972C35.7145 41.7776 35.182 42.3105 34.5015 42.3105C33.8806 42.3105 33.3617 41.8423 33.2906 41.1967C33.2858 41.1635 33.2882 41.1303 33.2882 41.0971C33.2882 40.4287 33.8323 39.8842 34.5015 39.8842ZM20.8273 34.4927C20.4475 34.4927 20.1385 34.1837 20.1385 33.8043V22.1913C20.1385 21.8119 20.4475 21.5029 20.8273 21.5029H25.1805C25.5599 21.5029 25.8685 21.8119 25.8685 22.1913V33.8033C25.8685 34.1827 25.5595 34.4917 25.1805 34.4917L20.8273 34.4927ZM23.0925 41.7979C22.4716 41.7979 21.9527 41.3298 21.8815 40.6845C21.8767 40.6514 21.8791 40.6182 21.8791 40.585C21.8791 39.9158 22.4232 39.3717 23.0921 39.3717C23.7614 39.3717 24.3051 39.9162 24.3051 40.585C24.3055 41.2654 23.7729 41.7979 23.0925 41.7979Z" fill="#5F2DEE"/>
<path d="M35.4763 31.5177C35.4763 32.0558 35.0402 32.4919 34.5021 32.4919C33.964 32.4919 33.5274 32.0558 33.5274 31.5177C33.5274 30.9792 33.964 30.543 34.5021 30.543C35.0402 30.543 35.4763 30.9792 35.4763 31.5177Z" fill="#5F2DEE"/>
<path d="M24.067 31.5177C24.067 32.0558 23.6309 32.4919 23.0928 32.4919C22.5543 32.4919 22.1181 32.0558 22.1181 31.5177C22.1181 30.9792 22.5543 30.543 23.0928 30.543C23.6309 30.543 24.067 30.9792 24.067 31.5177Z" fill="#5F2DEE"/>
</svg>
