<svg width="58" height="58" viewBox="0 0 58 58" fill="none" xmlns="http://www.w3.org/2000/svg">
<path d="M46.5591 39.0861L39.8899 36.9705C39.0389 36.6972 38.1291 36.6597 37.2583 36.862C36.3875 37.0643 35.5877 37.4989 34.9442 38.1194L32.2959 40.6692V40.6696C30.2984 39.5436 28.4 38.25 26.6215 36.8026C25.5862 35.9755 24.6463 35.0356 23.8193 34.0003C22.3672 32.2469 21.0688 30.3718 19.938 28.3958L22.4878 25.7618H22.4882C23.1087 25.1152 23.5432 24.3129 23.7452 23.4399C23.9475 22.5667 23.91 21.6552 23.6371 20.8017L21.5635 14.1042C21.1838 12.9171 20.3739 11.9148 19.2923 11.2951C18.2112 10.6752 16.9368 10.483 15.7208 10.7555L12.9185 11.3861C11.2732 11.787 9.94348 12.995 9.38763 14.5948C3.86728 29.6569 16.7154 41.7343 17.8643 42.8547C18.733 43.8075 27.1116 52.733 38.4885 52.733C41.0784 52.7198 43.6449 52.2452 46.0686 51.332C47.6754 50.7591 48.8796 49.4072 49.263 47.7452L49.8936 44.9429C50.1676 43.7266 49.9774 42.4522 49.3607 41.3686C48.744 40.2854 47.7446 39.4712 46.5588 39.0861L46.5591 39.0861ZM47.2179 44.2565L46.5873 47.0587C46.4184 47.7925 45.892 48.3925 45.1864 48.656C31.5534 53.6021 20.1062 40.964 19.9665 40.8378L19.8403 40.7116C19.7141 40.5997 7.07596 29.1522 12.022 15.4917C12.2876 14.8038 12.8744 14.2903 13.5913 14.1185L16.3935 13.432C16.5332 13.4167 16.6744 13.4167 16.8138 13.432C17.2765 13.4348 17.7263 13.5822 18.1007 13.8533C18.4751 14.1248 18.7553 14.5065 18.9017 14.9453L21.0173 21.6145C21.1331 21.9865 21.1473 22.3828 21.0587 22.7621C20.97 23.1417 20.7816 23.4904 20.5129 23.7724L17.2903 27.1211C17.1016 27.3158 16.973 27.5608 16.9208 27.8271C16.8687 28.0931 16.8947 28.3687 16.9959 28.6204C18.2387 31.2182 19.8065 33.6475 21.6618 35.8501C22.6165 37.0289 23.6917 38.1041 24.8705 39.0587C27.0512 40.9092 29.4568 42.4766 32.0299 43.7243C32.2816 43.8258 32.5573 43.8519 32.8232 43.7998C33.0895 43.7473 33.3346 43.619 33.5293 43.4302L36.878 40.2216C37.1592 39.9466 37.5097 39.7533 37.8921 39.6619C38.2745 39.5708 38.6746 39.585 39.0497 39.7032L45.7051 41.8189C46.2074 41.9767 46.6361 42.3097 46.9138 42.7571C47.1916 43.2045 47.2997 43.7364 47.2183 44.2569L47.2179 44.2565Z" fill="#5F2DEE"/>
<mask id="mask0_2_66" style="mask-type:luminance" maskUnits="userSpaceOnUse" x="27" y="4" width="22" height="22">
<path d="M27.4371 4.44987H48.3399V25.3527H27.4371V4.44987Z" fill="white"/>
</mask>
<g mask="url(#mask0_2_66)">
<path d="M44.4209 4.44987H31.3567C29.1951 4.44987 27.4374 6.20765 27.4374 8.36917V9.0223H28.7438V8.36917C28.7438 6.92824 29.9157 5.75629 31.3567 5.75629H44.4209C45.8618 5.75629 47.0337 6.9282 47.0337 8.36917V17.5143C47.0337 18.9552 45.8618 20.1272 44.4209 20.1272H43.7677C43.5946 20.1272 43.428 20.1957 43.3058 20.3186L40.5016 23.1227V22.0867H39.1951V24.6996C39.1951 24.9634 39.3544 25.2018 39.5982 25.3031C39.6791 25.3364 39.764 25.3527 39.8483 25.3527C40.0181 25.3527 40.1854 25.2861 40.3102 25.1613L44.0381 21.4334H44.4207C46.5822 21.4334 48.34 19.6756 48.34 17.5141V8.36943C48.34 6.20791 46.5822 4.45013 44.4207 4.45013L44.4209 4.44987Z" fill="#5F2DEE"/>
</g>
<mask id="mask1_2_66" style="mask-type:luminance" maskUnits="userSpaceOnUse" x="27" y="9" width="15" height="17">
<path d="M27.4371 9.6738H41.8302V25.3527H27.4371V9.6738Z" fill="white"/>
</mask>
<g mask="url(#mask1_2_66)">
<path d="M41.8079 18.1679V12.9423C41.8079 11.1414 40.3428 9.67629 38.5419 9.67629H30.7033C28.9024 9.67629 27.4372 11.1414 27.4372 12.9423V18.1679C27.4372 19.7454 28.5614 21.0648 30.0501 21.3679V24.7C30.0501 24.9639 30.2094 25.2023 30.4532 25.3036C30.5341 25.3368 30.619 25.3532 30.7033 25.3532C30.8731 25.3532 31.0404 25.2866 31.1652 25.1618L34.8931 21.4339H38.5419C40.3427 21.4339 41.8079 19.9688 41.8079 18.1678L41.8079 18.1679ZM40.5016 18.1679C40.5016 19.2482 39.6224 20.1274 38.5421 20.1274H34.6228C34.4497 20.1274 34.2831 20.196 34.1609 20.3188L31.3566 23.1231V20.7807C31.3566 20.4201 31.0639 20.1276 30.7035 20.1276C29.6231 20.1276 28.7439 19.2484 28.7439 18.1681V12.9425C28.7439 11.8621 29.6231 10.9829 30.7035 10.9829H38.5421C39.6224 10.9829 40.5016 11.8621 40.5016 12.9425V18.1679Z" fill="#5F2DEE"/>
</g>
<path d="M30.7032 12.2885H34.6225V13.5949H30.7032V12.2885Z" fill="#5F2DEE"/>
<path d="M30.7032 14.9015H38.5418V16.2079H30.7032V14.9015Z" fill="#5F2DEE"/>
<path d="M30.7032 17.5145H38.5418V18.8209H30.7032V17.5145Z" fill="#5F2DEE"/>
</svg>
