<svg width="58" height="58" viewBox="0 0 58 58" fill="none" xmlns="http://www.w3.org/2000/svg">
<path fill-rule="evenodd" clip-rule="evenodd" d="M27.8631 47.3763C26.5393 47.8445 25.5904 49.1082 25.5904 50.5909C25.5904 52.4729 27.1175 54.0001 28.9995 54.0001C30.8815 54.0001 32.4087 52.4729 32.4087 50.5909C32.4087 49.1078 31.4596 47.8445 30.1359 47.3763V43.7731C30.1359 43.1459 29.6267 42.6367 28.9995 42.6367C28.3723 42.6367 27.8631 43.1459 27.8631 43.7731V47.3763ZM28.9995 51.7274C28.3723 51.7274 27.8631 51.2182 27.8631 50.591C27.8631 49.9638 28.3723 49.4546 28.9995 49.4546C29.6267 49.4546 30.1359 49.9638 30.1359 50.591C30.1359 51.2182 29.6267 51.7274 28.9995 51.7274ZM9.68126 38.2849C8.35747 38.753 7.4085 40.0167 7.4085 41.4994C7.4085 43.3815 8.93562 44.9086 10.8176 44.9086C12.6997 44.9086 14.2268 43.3815 14.2268 41.4994C14.2268 40.0163 13.2778 38.753 11.954 38.2849V35.818H18.7724C19.3996 35.818 19.9088 35.3088 19.9088 34.6816C19.9088 34.0544 19.3996 33.5452 18.7724 33.5452H11.954C11.3518 33.5452 10.7733 33.785 10.3473 34.2113C9.92102 34.6376 9.68123 35.2157 9.68123 35.818L9.68126 38.2849ZM46.0452 38.2849C44.7214 38.753 43.7725 40.0167 43.7725 41.4994C43.7725 43.3815 45.2996 44.9086 47.1816 44.9086C49.0636 44.9086 50.5908 43.3815 50.5908 41.4994C50.5908 40.0163 49.6417 38.753 48.318 38.2849V35.818C48.318 35.2157 48.0782 34.6372 47.6519 34.2113C47.2256 33.785 46.6475 33.5452 46.0452 33.5452H39.2268C38.5996 33.5452 38.0904 34.0544 38.0904 34.6816C38.0904 35.3087 38.5996 35.8179 39.2268 35.8179H46.0452L46.0452 38.2849ZM10.817 42.6359C10.1898 42.6359 9.68061 42.1267 9.68061 41.4995C9.68061 40.8724 10.1898 40.3632 10.817 40.3632C11.4442 40.3632 11.9534 40.8724 11.9534 41.4995C11.9534 42.1267 11.4442 42.6359 10.817 42.6359ZM47.181 42.6359C46.5538 42.6359 46.0446 42.1267 46.0446 41.4995C46.0446 40.8724 46.5538 40.3632 47.181 40.3632C47.8082 40.3632 48.3173 40.8724 48.3173 41.4995C48.3173 42.1267 47.8082 42.6359 47.181 42.6359ZM23.3165 25.7851C21.9927 26.2533 21.0438 27.5169 21.0438 28.9997V38.0908C21.0438 39.9729 22.5709 41.5 24.4529 41.5H33.5441C35.4261 41.5 36.9532 39.9729 36.9532 38.0908V28.9997C36.9532 27.1177 35.4261 25.5905 33.5441 25.5905H25.5893V22.1814C25.5893 20.2994 27.1164 18.7723 28.9984 18.7723C30.8805 18.7723 32.4076 20.2994 32.4076 22.1814C32.4076 22.8086 32.9168 23.3178 33.544 23.3178C34.1712 23.3178 34.6803 22.8086 34.6803 22.1814C34.6803 19.045 32.1347 16.4995 28.9984 16.4995C25.8621 16.4995 23.3165 19.0451 23.3165 22.1814V25.7851ZM28.9984 30.1362C27.1164 30.1362 25.5893 31.6633 25.5893 33.5453C25.5893 35.4273 27.1164 36.9544 28.9984 36.9544C30.8805 36.9544 32.4076 35.4273 32.4076 33.5453C32.4076 31.6633 30.8805 30.1362 28.9984 30.1362ZM28.9984 32.4089C29.6256 32.4089 30.1348 32.9181 30.1348 33.5453C30.1348 34.1725 29.6256 34.6817 28.9984 34.6817C28.3712 34.6817 27.8621 34.1725 27.8621 33.5453C27.8621 32.9181 28.3712 32.4089 28.9984 32.4089ZM10.6221 30.1362H18.771C19.3982 30.1362 19.9074 29.627 19.9074 28.9998C19.9074 28.3726 19.3982 27.8634 18.771 27.8634H10.6221C10.1539 26.5396 8.89026 25.5906 7.40753 25.5906C5.5255 25.5906 3.99838 27.1178 3.99838 28.9998C3.99838 30.8818 5.5255 32.4089 7.40753 32.4089C8.89069 32.4089 10.154 31.4599 10.6221 30.1362ZM47.3748 27.8634H39.2259C38.5987 27.8634 38.0895 28.3726 38.0895 28.9998C38.0895 29.627 38.5987 30.1362 39.2259 30.1362H47.3748C47.8429 31.46 49.1066 32.4089 50.5893 32.4089C52.4714 32.4089 53.9985 30.8818 53.9985 28.9998C53.9985 27.1178 52.4714 25.5906 50.5893 25.5906C49.1062 25.5906 47.8429 26.5397 47.3748 27.8634ZM7.40655 27.8634C8.03375 27.8634 8.54293 28.3726 8.54293 28.9998C8.54293 29.627 8.03374 30.1362 7.40655 30.1362C6.77935 30.1362 6.27017 29.627 6.27017 28.9998C6.27017 28.3726 6.77937 27.8634 7.40655 27.8634ZM50.5892 27.8634C51.2164 27.8634 51.7256 28.3726 51.7256 28.9998C51.7256 29.627 51.2164 30.1362 50.5892 30.1362C49.962 30.1362 49.4529 29.627 49.4529 28.9998C49.4529 28.3726 49.9621 27.8634 50.5892 27.8634ZM46.0437 19.7145V22.1814H39.2253C38.5981 22.1814 38.0889 22.6906 38.0889 23.3178C38.0889 23.945 38.5981 24.4542 39.2253 24.4542H46.0437C46.646 24.4542 47.2245 24.2144 47.6504 23.7881C48.0767 23.3618 48.3165 22.7836 48.3165 22.1814V19.7145C49.6403 19.2463 50.5893 17.9826 50.5893 16.4999C50.5893 14.6179 49.0621 13.0907 47.1801 13.0907C45.2981 13.0907 43.771 14.6179 43.771 16.4999C43.771 17.9831 44.72 19.2464 46.0437 19.7145ZM9.67975 19.7145V22.1814C9.67975 22.7836 9.91954 23.3622 10.3458 23.7881C10.7721 24.2144 11.3503 24.4542 11.9525 24.4542H18.7709C19.3981 24.4542 19.9073 23.945 19.9073 23.3178C19.9073 22.6906 19.3981 22.1814 18.7709 22.1814H11.9525V19.7145C13.2763 19.2464 14.2253 17.9827 14.2253 16.5C14.2253 14.6179 12.6982 13.0908 10.8162 13.0908C8.93414 13.0908 7.40702 14.6179 7.40702 16.5C7.40702 17.9831 8.35602 19.2464 9.67975 19.7145ZM10.8161 15.3634C11.4433 15.3634 11.9525 15.8726 11.9525 16.4998C11.9525 17.127 11.4433 17.6362 10.8161 17.6362C10.1889 17.6362 9.67975 17.127 9.67975 16.4998C9.67975 15.8726 10.1889 15.3634 10.8161 15.3634ZM47.1801 15.3634C47.8073 15.3634 48.3165 15.8726 48.3165 16.4998C48.3165 17.127 47.8073 17.6362 47.1801 17.6362C46.5529 17.6362 46.0437 17.127 46.0437 16.4998C46.0437 15.8726 46.5529 15.3634 47.1801 15.3634ZM27.8618 10.6238V14.2271C27.8618 14.8542 28.371 15.3634 28.9982 15.3634C29.6254 15.3634 30.1346 14.8542 30.1346 14.2271V10.6238C31.4584 10.1556 32.4074 8.89193 32.4074 7.4092C32.4074 5.52718 30.8802 4.00006 28.9982 4.00006C27.1162 4.00006 25.5891 5.52718 25.5891 7.4092C25.5891 8.89236 26.5381 10.1556 27.8618 10.6238ZM28.9982 6.27271C29.6254 6.27271 30.1346 6.78191 30.1346 7.40909C30.1346 8.03628 29.6254 8.54547 28.9982 8.54547C28.371 8.54547 27.8618 8.03628 27.8618 7.40909C27.8618 6.78191 28.371 6.27271 28.9982 6.27271Z" fill="#5F2DEE"/>
</svg>
