<svg width="58" height="58" viewBox="0 0 58 58" fill="none" xmlns="http://www.w3.org/2000/svg">
<path fill-rule="evenodd" clip-rule="evenodd" d="M33.0873 48.884C33.2409 48.4827 33.69 48.2821 34.0916 48.4356C34.4929 48.5892 34.6935 49.0383 34.5404 49.44L32.9791 53.4961C32.8609 53.8057 32.5658 53.9962 32.2526 53.9962V53.9995H27.4121C27.0522 53.9995 26.7499 53.7562 26.6586 53.4257L25.2779 49.8388C24.0339 49.5682 22.8289 49.1879 21.6733 48.7086C20.5016 48.2229 19.3807 47.6343 18.3209 46.9532L14.7332 48.5465C14.4313 48.68 14.0895 48.6052 13.8688 48.3857L13.866 48.3885L10.4427 44.9661C10.1882 44.7116 10.146 44.3256 10.3165 44.0273L11.8777 40.5127C11.1966 39.4528 10.6076 38.3318 10.1223 37.1603C9.643 36.0044 9.26303 34.7986 8.99168 33.5537L5.33643 32.1465C5.02603 32.0275 4.83545 31.7327 4.83545 31.4191H4.83223V26.5786C4.83223 26.2188 5.07548 25.9164 5.40598 25.8252L8.99206 24.4449C9.26265 23.2004 9.64301 21.9946 10.1222 20.8391C10.6079 19.6679 11.1966 18.5466 11.8777 17.4875L10.2843 13.8999C10.1509 13.5979 10.2256 13.2562 10.4452 13.0355L10.4424 13.0326L13.8648 9.6094C14.1193 9.35488 14.5053 9.31267 14.8036 9.48314L18.3189 11.0448C19.3787 10.3637 20.5001 9.77423 21.6713 9.28861C22.8269 8.80934 24.0319 8.42978 25.2759 8.15844L26.6836 4.50206C26.8018 4.19246 27.0969 4.00188 27.4101 4.00188L27.4105 3.99947H32.251C32.6109 3.99947 32.9132 4.24272 33.0045 4.57322L34.5392 8.56093C34.6928 8.96219 34.4917 9.41171 34.0909 9.5653C33.6896 9.71889 33.2401 9.51785 33.0865 9.11699L31.7187 5.56313H27.9432L26.599 9.05471C26.5206 9.32731 26.2959 9.54726 25.9983 9.60515C24.7041 9.85886 23.4569 10.2388 22.2699 10.731C21.0529 11.2356 19.9005 11.8556 18.8262 12.5769L18.8258 12.5757C18.6119 12.7189 18.3316 12.7522 18.0787 12.6405L14.5928 11.0925L11.9227 13.7626L13.4514 17.2051C13.5773 17.4488 13.5696 17.7519 13.4064 17.996C12.6847 19.0704 12.0651 20.2227 11.5604 21.4389C11.0683 22.6258 10.6887 23.8734 10.4343 25.1677L10.4315 25.1673C10.3816 25.4218 10.2055 25.6454 9.94576 25.7447L6.39262 27.1125V30.888L9.88338 32.2313C10.156 32.3097 10.3759 32.5345 10.4338 32.832C10.6883 34.1267 11.0679 35.3747 11.56 36.562C12.0646 37.7786 12.6842 38.9315 13.4051 40.0057L13.4039 40.0061C13.547 40.22 13.5804 40.5003 13.4686 40.7532L11.9211 44.2379L14.5912 46.908L18.0337 45.379C18.2773 45.2531 18.5805 45.2607 18.8245 45.424C19.8989 46.1453 21.0516 46.7653 22.2683 47.2699C23.4552 47.7621 24.7024 48.1416 25.9967 48.3958L25.9963 48.3986C26.2508 48.4484 26.4744 48.6246 26.5737 48.8843L27.9415 52.4382H31.717L33.0873 48.884ZM43.2923 42.4915V39.9159C43.2923 39.716 43.2163 39.5162 43.0631 39.3634L39.2032 35.5031C39.0617 35.3596 38.8647 35.2704 38.6467 35.2704H34.5814V36.8332H38.3231L41.7295 40.2396V42.4912C41.6587 42.5213 41.5892 42.5567 41.5204 42.5961C40.5731 43.1433 40.2483 44.3544 40.7955 45.3012C41.3427 46.2485 42.5537 46.5733 43.5006 46.0262C44.4479 45.4789 44.7727 44.2679 44.2255 43.3211C44.004 42.9363 43.6723 42.654 43.2923 42.4916L43.2923 42.4915ZM44.0562 33.8787H42.1665L40.2422 31.9545C40.1007 31.8109 39.9037 31.7217 39.6858 31.7217H34.4085C34.5207 32.1277 34.581 32.5564 34.581 32.9986V33.2845H39.362L41.2899 35.2123C41.4423 35.3647 41.6421 35.4415 41.8424 35.4415H44.0553C44.3585 36.1472 45.0597 36.6409 45.876 36.6409C46.97 36.6409 47.8561 35.7543 47.8561 34.6607C47.8561 33.5667 46.9696 32.6805 45.876 32.6805C45.0598 32.6797 44.3594 33.1735 44.0562 33.8787ZM49.3655 28.1733H33.3764L33.2948 29.7362H49.3652C49.6684 30.4418 50.3696 30.9355 51.1858 30.9355C52.2799 30.9355 53.166 30.049 53.166 28.9554C53.166 27.8613 52.2794 26.9752 51.1858 26.9752C50.37 26.9744 49.6689 27.4682 49.3656 28.1734L49.3655 28.1733ZM44.0562 22.1057H42.07C41.8701 22.1057 41.6703 22.1817 41.5175 22.3349L39.2273 24.6251H34.5818V24.9998C34.5818 25.4099 34.5299 25.8076 34.4334 26.1871H39.551C39.7685 26.1871 39.9659 26.0978 40.1075 25.9543L42.394 23.6677H44.0566C44.3597 24.3734 45.0609 24.8671 45.8772 24.8671C46.9712 24.8671 47.8574 23.9805 47.8574 22.8869C47.8574 21.7928 46.9708 20.9067 45.8772 20.9067C45.0598 20.9063 44.3593 21.4001 44.0562 22.1057ZM43.2923 15.4184C43.6718 15.256 44.0043 14.9738 44.2263 14.5886C44.7735 13.6413 44.449 12.4298 43.5013 11.8835C42.5541 11.3363 41.3426 11.6607 40.7962 12.6084C40.249 13.5557 40.5735 14.7672 41.5212 15.3135C41.5899 15.3529 41.6595 15.3879 41.7302 15.4184V17.67L38.3239 21.0764H34.5822V22.6393H38.6475C38.865 22.6393 39.0624 22.55 39.2039 22.4065L43.0642 18.5462C43.2166 18.3938 43.2934 18.194 43.2934 17.9938C43.2922 17.1349 43.2923 16.2765 43.2923 15.4184ZM26.7391 14.1849C26.7363 14.1942 26.7338 14.2026 26.7306 14.2119C26.6349 14.5166 26.5839 14.8407 26.5839 15.1764C26.5839 15.5801 26.6562 15.9629 26.7881 16.3123C26.9252 16.6766 27.1291 17.0107 27.3844 17.3014C27.6691 17.625 27.6377 18.118 27.314 18.4026C26.9904 18.6873 26.4974 18.6559 26.212 18.3323C25.8364 17.9057 25.5353 17.4079 25.3286 16.8615C25.13 16.3336 25.0206 15.7655 25.0206 15.176C25.0206 15.1056 25.0222 15.0357 25.0255 14.9657C24.7074 15.0944 24.4139 15.2721 24.1554 15.4896C23.6323 15.9295 23.2507 16.5338 23.0891 17.2213C22.9914 17.6411 22.5721 17.902 22.1523 17.8043C22.1354 17.8007 22.1189 17.7959 22.1024 17.7906C21.9991 17.7673 21.8873 17.748 21.7675 17.7336C21.6445 17.7183 21.5158 17.711 21.3819 17.711C20.5123 17.711 19.7186 18.06 19.138 18.6261C18.5594 19.1894 18.1899 19.9659 18.1629 20.8246C18.1774 21.2834 18.2908 21.7196 18.4826 22.1144C18.6828 22.527 18.9703 22.8924 19.3213 23.1859C19.6518 23.4626 19.6952 23.9539 19.419 24.2848C19.1424 24.6153 18.651 24.6587 18.3201 24.3825C17.8031 23.9499 17.3777 23.4079 17.0789 22.7924C16.941 22.5089 16.8308 22.2086 16.7512 21.8957C16.3724 22.1048 16.0391 22.3879 15.7714 22.7256C15.3371 23.2732 15.0766 23.966 15.0766 24.7178V24.7319C15.0766 25.6912 15.4682 26.5621 16.0998 27.1934C16.7315 27.825 17.6028 28.2166 18.5613 28.2166H26.2686C25.9996 27.9223 25.7672 27.5942 25.5787 27.2404C25.3768 26.8596 25.5216 26.3868 25.9023 26.1841C26.2831 25.9823 26.7559 26.127 26.9586 26.5078C27.2348 27.0273 27.6461 27.4607 28.1443 27.7607C28.626 28.0502 29.1933 28.2166 29.802 28.2166C30.6906 28.2166 31.4955 27.8564 32.0777 27.2742C32.6599 26.692 33.0201 25.8874 33.0201 24.9985L33.021 15.1771C33.021 14.293 32.6587 13.4885 32.0753 12.905C31.4919 12.3216 30.687 11.9594 29.8032 11.9594C28.9146 11.9594 28.1097 12.3196 27.5275 12.9018C27.1709 13.2569 26.8979 13.6956 26.7391 14.1849ZM33.0198 32.9995C33.0198 32.1109 32.6596 31.306 32.0774 30.7238C31.4952 30.1416 30.6906 29.7814 29.8017 29.7814C29.193 29.7814 28.6256 29.9478 28.144 30.2373C27.6459 30.5365 27.2346 30.9703 26.9583 31.4894C26.7564 31.8701 26.2832 32.0149 25.902 31.813C25.5213 31.6112 25.3765 31.1379 25.5784 30.7568C25.7669 30.4029 25.9985 30.0752 26.2675 29.7805H18.5614C17.6021 29.7805 16.7312 30.1721 16.1 30.8038C15.4683 31.4354 15.0767 32.3068 15.0767 33.2653V33.2793C15.0767 34.0312 15.3372 34.7235 15.7715 35.2715C16.0393 35.6093 16.3726 35.8923 16.7513 36.1014C16.8305 35.7886 16.9415 35.4887 17.079 35.2052C17.3778 34.5892 17.8036 34.0477 18.3202 33.615C18.6507 33.3384 19.1425 33.3822 19.4191 33.7127C19.6958 34.0432 19.6519 34.535 19.3214 34.8116C18.9708 35.1055 18.6829 35.4702 18.4827 35.8831C18.2909 36.278 18.1775 36.715 18.1631 37.1729C18.19 38.0318 18.5595 38.8082 19.1381 39.3714C19.7195 39.9375 20.5127 40.2865 21.3821 40.2865C21.516 40.2865 21.6446 40.2789 21.7677 40.264C21.8883 40.2495 21.9992 40.2306 22.1026 40.2069C22.1187 40.2021 22.1355 40.1977 22.1524 40.1933C22.5722 40.0956 22.9911 40.3565 23.0893 40.7763C23.2509 41.4646 23.6333 42.0685 24.1555 42.5079C24.4144 42.7255 24.7076 42.9032 25.0256 43.0318C25.0224 42.9623 25.0208 42.8919 25.0208 42.8216C25.0208 42.2321 25.1297 41.664 25.3287 41.1361C25.535 40.5893 25.8362 40.0919 26.2121 39.6653C26.4968 39.3416 26.9901 39.3103 27.3142 39.595C27.6378 39.8796 27.6692 40.373 27.3845 40.6962C27.1292 40.9869 26.9254 41.321 26.7883 41.6853C26.6564 42.0347 26.584 42.4179 26.584 42.8211C26.584 43.1573 26.6359 43.4813 26.7308 43.7857C26.734 43.7949 26.7368 43.8042 26.7392 43.8134C26.8976 44.3028 27.1702 44.7414 27.5256 45.0969C28.1078 45.6791 28.9124 46.0393 29.8013 46.0393C30.6855 46.0393 31.49 45.6771 32.0734 45.0936C32.6568 44.5102 33.0191 43.7053 33.0191 42.8216L33.0187 32.9994L33.0198 32.9995Z" fill="#5F2DEE"/>
</svg>
