<svg width="50" height="50" viewBox="0 0 50 50" fill="none" xmlns="http://www.w3.org/2000/svg">
<path d="M34.1569 46.2205H15.8863C13.7588 46.2205 12.0342 44.4959 12.0342 42.3684V7.61977C12.0342 5.49261 13.7588 3.76813 15.8863 3.76813H34.1569C36.2841 3.76813 38.0085 5.49272 38.0085 7.61977V42.3614C38.0108 43.384 37.606 44.3658 36.8834 45.0897C36.1608 45.8137 35.1799 46.2208 34.1568 46.2208L34.1569 46.2205ZM15.8863 5.04408C14.4681 5.04408 13.3183 6.1935 13.3183 7.61169V42.3615C13.3183 43.7798 14.4681 44.9291 15.8863 44.9291H34.1569C35.5752 44.9291 36.7245 43.7797 36.7245 42.3615V7.61989C36.7245 6.20162 35.5751 5.05228 34.1569 5.05228L15.8863 5.04408Z" fill="#7141B1"/>
<path d="M36.702 39.6696H13.3342C12.6065 39.6696 12.0168 39.0798 12.0168 38.3521V11.0981C12.0168 10.3709 12.6066 9.78113 13.3342 9.78113H36.702C37.4287 9.7825 38.0168 10.3719 38.0168 11.0981V38.3521C38.0168 39.0789 37.4288 39.6683 36.702 39.6696ZM13.3342 11.0651C13.3154 11.0651 13.3008 11.0797 13.3008 11.098V38.352C13.3008 38.3704 13.3154 38.3855 13.3342 38.3855H36.702C36.7107 38.3855 36.7189 38.3818 36.7249 38.3754C36.7304 38.369 36.7336 38.3607 36.7327 38.352V11.098C36.7336 11.0898 36.7304 11.0811 36.7249 11.0747C36.7189 11.0683 36.7107 11.0646 36.702 11.0651H13.3342Z" fill="#7141B1"/>
<path d="M23.5849 6.90802H26.4585V8.19206H23.5849V6.90802Z" fill="#7141B1"/>
<path d="M25.0234 44.312C23.8217 44.312 22.8481 43.3384 22.8481 42.1372C22.8481 40.936 23.8217 39.962 25.0234 39.962C26.2245 39.962 27.1981 40.936 27.1981 42.1372C27.1954 43.337 26.2232 44.3092 25.0234 44.312ZM25.0234 41.2461C24.5311 41.2461 24.1322 41.645 24.1322 42.1373C24.1322 42.6291 24.5311 43.0284 25.0234 43.0284C25.5152 43.0284 25.9141 42.6291 25.9141 42.1373C25.9127 41.6455 25.5147 41.2475 25.0234 41.2461Z" fill="#7141B1"/>
<rect x="15.5431" y="14.122" width="6.15232" height="24.1591" rx="0.300113" stroke="#7141B1" stroke-width="0.300113"/>
<rect x="26.4603" y="14.0094" width="5.02576" height="4.5252" rx="0.712769" stroke="#7141B1" stroke-width="0.0750283"/>
<path d="M27.9687 17.2721H27.5467L28.3151 15.0895H28.8032L29.5727 17.2721H29.1506L28.5677 15.5371H28.5506L27.9687 17.2721ZM27.9826 16.4163H29.1336V16.7339H27.9826V16.4163Z" fill="#7141B1"/>
<rect x="23.4961" y="19.3224" width="10.9541" height="1.65062" rx="0.300113" stroke="#7141B1" stroke-width="0.300113"/>
<path d="M23.346 22.9988H34.6003" stroke="#7141B1" stroke-width="0.300113"/>
<path d="M23.346 25.0246H34.6003" stroke="#7141B1" stroke-width="0.300113"/>
<path d="M23.346 27.0504H34.6003" stroke="#7141B1" stroke-width="0.300113"/>
<path d="M23.346 29.0761H34.6003" stroke="#7141B1" stroke-width="0.300113"/>
<path d="M23.346 31.1019H34.6003" stroke="#7141B1" stroke-width="0.300113"/>
<path d="M23.346 33.1276H34.6003" stroke="#7141B1" stroke-width="0.300113"/>
<path d="M23.346 35.1534H34.6003" stroke="#7141B1" stroke-width="0.300113"/>
<path d="M23.346 37.1792H34.6003" stroke="#7141B1" stroke-width="0.300113"/>
<path d="M23.346 39.205H34.6003" stroke="#7141B1" stroke-width="0.300113"/>
</svg>
