<svg width="58" height="58" viewBox="0 0 58 58" fill="none" xmlns="http://www.w3.org/2000/svg">
<path d="M21.2414 8.72691L21.6726 8.29572H36.3272L36.7584 8.72691V12.6064H38.9136V7.86452C38.9136 7.15057 38.3344 6.57132 37.6204 6.57132H20.3791C19.6652 6.57132 19.0859 7.15053 19.0859 7.86452V12.606H21.2411L21.2414 8.72691Z" fill="white"/>
<path d="M38.9141 29.4155H44.0862V36.3122H38.9141V29.4155Z" fill="white"/>
<path d="M44.9481 36.744L44.5169 37.1751L38.4824 37.1747L38.0512 36.7435L38.0516 33.2957H19.9485V36.744L19.5173 37.1752L13.4828 37.1747L13.0516 36.7435L13.052 33.2957H5.72424V50.1614C5.72382 50.3675 5.89022 50.5357 6.09683 50.5369H51.9038C52.1104 50.5357 52.2768 50.3675 52.2764 50.1614V33.2957H44.949L44.9481 36.744Z" fill="white"/>
<path d="M13.9139 29.4155H19.0861V36.3122H13.9139V29.4155Z" fill="white"/>
<path d="M53.6234 13.4676H4.37565C4.16305 13.474 3.99535 13.6503 3.99964 13.8629V31.2126C3.99022 31.876 4.51938 32.4223 5.18333 32.4338H13.0514V28.9856L13.4826 28.5544H19.5168L19.948 28.9856V32.4338H38.0511V28.9856L38.4823 28.5544H44.5168L44.948 28.9856V32.4338H52.8161H52.8157C53.4792 32.4227 54.0088 31.8764 53.9994 31.2126V13.8629C54.0032 13.6503 53.8355 13.474 53.6229 13.4676H53.6234Z" fill="white"/>
</svg>
