<svg width="58" height="58" viewBox="0 0 58 58" fill="none" xmlns="http://www.w3.org/2000/svg">
<path d="M22.8559 30.2685C22.9539 30.5625 23.073 30.8492 23.2121 31.1267L22.6264 31.712C22.4812 31.8573 22.3997 32.054 22.3997 32.2596C22.3997 32.4648 22.4812 32.662 22.6264 32.8073L24.4189 34.5993C24.5642 34.7446 24.7613 34.8261 24.9665 34.8261C25.1721 34.8261 25.3689 34.7446 25.5142 34.5993L26.0995 34.0144C26.3766 34.1535 26.6633 34.2727 26.9573 34.3707V35.1973C26.9573 35.4025 27.0387 35.5997 27.184 35.7449C27.3293 35.8902 27.5264 35.9717 27.7317 35.9717H30.267C30.4726 35.9717 30.6694 35.8902 30.8146 35.7449C30.9599 35.5997 31.0414 35.4025 31.0414 35.1973V34.3703C31.3354 34.2723 31.6221 34.1535 31.8992 34.014L32.4845 34.5993C32.6297 34.7446 32.8269 34.8261 33.0321 34.8261C33.2373 34.8261 33.4345 34.7446 33.5798 34.5993L35.3722 32.8073V32.8069C35.5175 32.662 35.599 32.4648 35.599 32.2596C35.599 32.054 35.5175 31.8573 35.3722 31.712L34.7869 31.1267C34.9264 30.8496 35.0452 30.5629 35.1432 30.2685H35.9698C36.175 30.2685 36.3722 30.187 36.5175 30.0418C36.6627 29.8965 36.7442 29.6993 36.7442 29.4941V26.9596C36.7442 26.754 36.6627 26.5572 36.5175 26.4119C36.3722 26.2666 36.175 26.1852 35.9698 26.1852H35.1432C35.0448 25.8908 34.9256 25.6041 34.7869 25.327L35.3722 24.7417C35.5175 24.5964 35.599 24.3993 35.599 24.1941C35.599 23.9888 35.5175 23.7917 35.3722 23.6464L33.5798 21.8544C33.4345 21.7091 33.2373 21.6272 33.0321 21.6272C32.8269 21.6272 32.6297 21.7091 32.4845 21.8544L31.8992 22.4393C31.6221 22.3002 31.3354 22.181 31.0414 22.083V21.2564C31.0414 21.0512 30.9599 20.854 30.8146 20.7087C30.6694 20.5635 30.4726 20.482 30.267 20.482H27.7317C27.5264 20.482 27.3293 20.5635 27.184 20.7087C27.0387 20.854 26.9573 21.0512 26.9573 21.2564V22.083C26.6633 22.181 26.3766 22.3002 26.0995 22.4393L25.5142 21.8544C25.3689 21.7091 25.1721 21.6276 24.9665 21.6276C24.7613 21.6276 24.5642 21.7091 24.4189 21.8544L22.6264 23.6464C22.4812 23.7917 22.3997 23.9888 22.3997 24.1941C22.3997 24.3997 22.4812 24.5964 22.6264 24.7417L23.2117 25.327C23.0726 25.6041 22.9535 25.8908 22.8555 26.1852H22.0288C21.8236 26.1852 21.6265 26.2666 21.4812 26.4119C21.3359 26.5572 21.2545 26.7543 21.2545 26.9596V29.4941C21.2545 29.6993 21.3359 29.8965 21.4812 30.0418C21.6265 30.187 21.8236 30.2685 22.0288 30.2685H22.8559ZM22.8036 27.734H22.9685C23.5845 27.7293 24.1261 27.325 24.3055 26.7356C24.3901 26.47 24.4973 26.2117 24.6264 25.9642C24.9177 25.4205 24.8205 24.7498 24.3866 24.3113L24.2694 24.1941L24.9669 23.497L25.0841 23.6142H25.0837C25.523 24.0473 26.1925 24.1441 26.7363 23.8532C26.9842 23.7245 27.2424 23.6172 27.5087 23.5327C28.0979 23.3532 28.5022 22.8117 28.5061 22.1961V22.0308H29.4922V22.1957L29.4925 22.1961C29.4968 22.8117 29.9007 23.3536 30.4903 23.5327C30.7562 23.6172 31.0145 23.7249 31.2623 23.8532C31.8061 24.1445 32.476 24.0477 32.9149 23.6146L33.0321 23.4973L33.7296 24.1945L33.6132 24.3105L33.6128 24.3102C33.1785 24.749 33.0809 25.42 33.3726 25.9642C33.5017 26.2124 33.6093 26.4715 33.6939 26.7382C33.8741 27.3266 34.4152 27.7293 35.0301 27.7339H35.1954V28.7193H35.0305L35.0301 28.7197C34.4145 28.7243 33.8729 29.1286 33.6931 29.7178C33.6085 29.9838 33.5013 30.242 33.3726 30.4895C33.0809 31.0333 33.1781 31.7036 33.612 32.1425L33.7292 32.2597L33.0317 32.9568L32.9145 32.8396L32.9149 32.8392C32.4756 32.4065 31.8061 32.3096 31.2623 32.6002C31.0144 32.7289 30.7562 32.8365 30.4902 32.9211C29.9007 33.1002 29.4968 33.642 29.4925 34.2577V34.4226H28.506V34.2577C28.5022 33.642 28.0979 33.1001 27.5087 32.9211C27.2424 32.8361 26.9841 32.7289 26.7363 32.6002C26.1928 32.3093 25.5226 32.4061 25.0837 32.8392L24.9665 32.9564L24.269 32.2593L24.3854 32.1432L24.3858 32.1436C24.8201 31.7047 24.9177 31.0337 24.6264 30.4896C24.4969 30.2413 24.3893 29.9823 24.3047 29.7152C24.1245 29.1272 23.5834 28.7241 22.9685 28.7195H22.8036L22.8036 27.734Z" fill="#5F2DEE"/>
<path d="M28.9999 32.0994C30.0269 32.0994 31.0118 31.6913 31.7381 30.965C32.4641 30.239 32.8722 29.254 32.8722 28.2268C32.8722 27.1998 32.4641 26.2149 31.7381 25.4885C31.0118 24.7626 30.0268 24.3545 28.9999 24.3545C27.9727 24.3545 26.9877 24.7626 26.2617 25.4885C25.5354 26.2149 25.1273 27.1999 25.1273 28.2268C25.1288 29.2537 25.5369 30.2378 26.2629 30.9638C26.9889 31.6898 27.9731 32.0979 28.9999 32.0994ZM28.9999 25.9035C29.616 25.9035 30.2071 26.1483 30.6428 26.5838C31.0783 27.0196 31.3231 27.6107 31.3231 28.2267C31.3231 28.8431 31.0783 29.4341 30.6428 29.8696C30.207 30.3054 29.6159 30.5502 28.9999 30.5502C28.3835 30.5502 27.7925 30.3054 27.357 29.8696C26.9212 29.4342 26.6764 28.843 26.6764 28.2267C26.6772 27.6106 26.922 27.0203 27.3578 26.5845C27.7932 26.1491 28.384 25.9039 28.9999 25.9035Z" fill="#5F2DEE"/>
<path d="M21.6261 36.7313C22.3882 37.3624 22.822 38.3062 22.8044 39.2958V43.9375C22.8248 45.3345 23.3982 46.6665 24.3993 47.6415C25.4001 48.6161 26.7467 49.1541 28.144 49.1376H29.8565H29.8561C31.2534 49.1541 32.6001 48.6161 33.6011 47.6415C34.6019 46.6665 35.1757 45.3345 35.196 43.9375V39.2954C35.1941 38.2809 35.6507 37.3197 36.4377 36.6798C39.0054 34.6179 40.5334 31.5289 40.6136 28.2369C40.6943 24.9449 39.3197 21.7851 36.8559 19.5999C34.3497 17.3693 31.0143 16.3083 27.68 16.6811C25.0717 16.9501 22.634 18.103 20.7712 19.9485C18.9084 21.7943 17.7329 24.2213 17.4397 26.8273C17.0642 30.6251 18.6403 34.354 21.626 36.7315L21.6261 36.7313ZM24.3532 43.9375V42.9418H33.647V43.9375C33.6424 44.1231 33.6232 44.308 33.589 44.4905H24.4112C24.3774 44.308 24.3578 44.1231 24.3532 43.9375ZM29.8562 47.5884H28.1441C26.9266 47.5931 25.7795 47.0181 25.0551 46.0397H32.9457C32.2209 47.0181 31.0738 47.5931 29.8563 47.5884H29.8562ZM18.9808 26.981C19.2376 24.7285 20.2568 22.6314 21.8693 21.0381C23.4823 19.4444 25.5913 18.4501 27.8465 18.2207C30.7438 17.8948 33.6427 18.8148 35.8214 20.7521C37.9481 22.6348 39.1353 25.3604 39.0654 28.1996C38.9954 31.0392 37.6757 33.703 35.459 35.4792C34.3103 36.4123 33.6443 37.8146 33.647 39.295V41.3921H24.3532V39.2954C24.3724 37.8362 23.7256 36.4477 22.5965 35.5238C20.0198 33.4742 18.6585 30.2576 18.9809 26.9809L18.9808 26.981Z" fill="#5F2DEE"/>
<path d="M10.4123 52.2356V47.5885H15.059C15.2646 47.5885 15.4618 47.5071 15.6066 47.3618C15.7519 47.2165 15.8338 47.0198 15.8338 46.8142V41.3927H20.4804V39.844H15.059C14.8538 39.844 14.6566 39.9254 14.5114 40.0707C14.3661 40.216 14.2846 40.4131 14.2846 40.6184V46.0398H9.63795C9.43235 46.0398 9.23519 46.1213 9.09031 46.2665C8.94504 46.4118 8.86318 46.609 8.86318 46.8142V51.4608L4.99091 51.4612V53.01H9.63795C9.84317 53.01 10.0403 52.9285 10.1856 52.7832C10.3309 52.638 10.4123 52.4408 10.4123 52.2356Z" fill="#5F2DEE"/>
<path d="M45.2637 15.8356H49.9104C50.116 15.8356 50.3128 15.7538 50.458 15.6085C50.6033 15.4636 50.6848 15.2665 50.6848 15.0609V9.63974H52.2339C52.5272 9.63974 52.7954 9.4741 52.9268 9.21161C53.0579 8.94913 53.0295 8.63515 52.8534 8.40033L50.5299 5.30243C50.3777 5.1172 50.1502 5.00997 49.9104 5.00997C49.6706 5.00997 49.4435 5.11719 49.2909 5.30243L46.9674 8.40033H46.9678C46.7914 8.63515 46.7629 8.94913 46.8944 9.21161C47.0254 9.4741 47.2937 9.63974 47.5869 9.63974H49.1356V14.2864H44.489C44.2838 14.2864 44.0866 14.3679 43.9413 14.5131C43.7961 14.6584 43.7146 14.8556 43.7146 15.0608V20.4822H45.2634L45.2637 15.8356ZM49.9104 7.05796L50.6848 8.09059H49.136L49.9104 7.05796Z" fill="#5F2DEE"/>
<path d="M28.2247 11.9623H29.7735V15.0602H28.2247V11.9623Z" fill="#5F2DEE"/>
<path d="M12.7362 27.4518H15.8341V29.0005H12.7362V27.4518Z" fill="#5F2DEE"/>
<path d="M42.1656 27.4518H45.2635V29.0005H42.1656V27.4518Z" fill="#5F2DEE"/>
<path d="M16.9519 17.274L18.0468 16.1787L20.2378 18.3689L19.1429 19.4642L16.9519 17.274Z" fill="#5F2DEE"/>
<path d="M37.762 18.369L39.9526 16.1784L41.0479 17.2737L38.8573 19.4643L37.762 18.369Z" fill="#5F2DEE"/>
</svg>
