<svg width="58" height="58" viewBox="0 0 58 58" fill="none" xmlns="http://www.w3.org/2000/svg">
<path d="M43.208 17.0981C42.8523 17.0981 42.4975 17.115 42.1443 17.1495C42.2167 16.6265 42.2533 16.108 42.2533 15.5982C42.2533 9.20277 37.0498 3.99953 30.6546 3.99953C26.4636 3.99953 22.6617 6.22032 20.5927 9.83371C20.1043 9.73215 19.6129 9.68116 19.1236 9.68116C15.1386 9.68116 11.896 12.9237 11.896 16.9088C11.896 17.5494 11.9791 18.1789 12.1439 18.7895C7.57657 19.5995 4.12402 23.6216 4.12402 28.3406C4.12402 33.6917 8.4775 38.0456 13.829 38.0456H26.255V43.5923C24.4051 44.5906 23.2353 46.526 23.2353 48.6538C23.2353 50.9416 24.5987 53.0152 26.7097 53.9362C26.9437 54.0386 27.2134 54.0156 27.4276 53.8758C27.6414 53.7356 27.7701 53.4975 27.7701 53.2418V50.123C27.7701 49.447 28.324 48.8972 29.0045 48.8972C29.4157 48.8972 29.6998 49.0954 29.8659 49.2611C30.032 49.4276 30.2302 49.7122 30.2302 50.1234V53.2421C30.2302 53.4971 30.3585 53.7347 30.5715 53.8749C30.6969 53.9576 30.8421 53.9995 30.9876 53.9995C31.0892 53.9995 31.1915 53.9794 31.2878 53.9374C33.3999 53.0263 34.7651 50.9523 34.7651 48.6539C34.7651 46.526 33.5953 44.5906 31.7453 43.5923V38.0456H43.2072C49.1885 38.0456 53.8743 33.5334 53.8743 27.7728C53.8739 21.8868 49.0886 17.0983 43.2072 17.0983L43.208 17.0981ZM30.7872 32.6357C30.4579 32.7261 30.2301 33.0255 30.2301 33.3663V44.0661C30.2301 44.3683 30.4098 44.6421 30.6877 44.7614C32.244 45.4332 33.2498 46.9608 33.2498 48.6536C33.2498 49.9233 32.6844 51.0997 31.7453 51.8921V50.1232C31.7453 49.3978 31.4583 48.7112 30.9369 48.1898C30.4155 47.6689 29.7297 47.3823 29.0044 47.3823C27.488 47.3823 26.2549 48.6117 26.2549 50.1232V51.8871C25.3158 51.0915 24.7504 49.9167 24.7504 48.6536C24.7504 46.9608 25.7562 45.4333 27.3125 44.7614C27.5904 44.6417 27.7701 44.3683 27.7701 44.0661V33.3663C27.7701 33.0255 27.5423 32.7261 27.213 32.6357C26.5144 32.4437 25.8355 32.1176 25.1957 31.6657C24.9363 31.4828 24.5901 31.4807 24.3286 31.6608L23.1625 32.4651L22.8656 32.1682L23.6703 31.0021C23.8516 30.7394 23.8487 30.3915 23.6629 30.1312C23.0786 29.3138 22.6983 28.4002 22.5313 27.4167C22.4783 27.1029 22.2349 26.8558 21.922 26.7983L20.5413 26.5433V26.1182L21.922 25.8632C22.2349 25.8057 22.4783 25.5586 22.5313 25.2448C22.6983 24.2613 23.0786 23.348 23.6629 22.5303C23.8487 22.2704 23.8516 21.9221 23.6703 21.6594L22.8656 20.4933L23.1645 20.1944L24.331 20.9929C24.5921 21.1718 24.9371 21.1685 25.1953 20.9876C26.0206 20.4066 26.9354 20.0279 27.9144 19.8618C28.2282 19.8088 28.4753 19.5653 28.5328 19.2524L28.7878 17.8713H29.2125L29.4674 19.2524C29.525 19.5653 29.7721 19.8088 30.0859 19.8618C31.0649 20.0279 31.9797 20.4062 32.8049 20.9876C33.0644 21.1689 33.4081 21.1722 33.6692 20.9929L34.8357 20.1944L35.1346 20.4933L34.33 21.6594C34.1486 21.9221 34.1515 22.27 34.3374 22.5303C34.9217 23.3477 35.302 24.2613 35.4689 25.2448C35.522 25.5586 35.7654 25.8057 36.0783 25.8632L37.459 26.1182V26.5433L36.0783 26.7983C35.7654 26.8558 35.522 27.1029 35.4689 27.4167C35.302 28.4002 34.9217 29.3135 34.3374 30.1312C34.1515 30.3911 34.1487 30.7394 34.33 31.0021L35.1346 32.1682L34.8374 32.4655L33.6713 31.6612C33.4102 31.4815 33.064 31.4832 32.8041 31.6661C32.1647 32.1176 31.4858 32.4437 30.7872 32.6357ZM43.208 36.5303H31.7461V33.9202C32.2564 33.736 32.7535 33.4946 33.233 33.199L34.4973 34.0711C34.7987 34.2791 35.2054 34.2413 35.4632 33.9831L36.6532 32.7935C36.9118 32.5349 36.9488 32.1287 36.7412 31.8277L35.8695 30.5645C36.3263 29.8285 36.6569 29.0354 36.8563 28.1958L38.355 27.919C38.7144 27.8528 38.975 27.5395 38.975 27.174V25.4881C38.975 25.1226 38.7144 24.8093 38.355 24.7431L36.8563 24.4664C36.6569 23.6272 36.3263 22.834 35.8695 22.0976L36.7412 20.8345C36.9488 20.5335 36.9118 20.1272 36.6532 19.8686L35.4628 18.6791C35.205 18.4217 34.8004 18.3838 34.499 18.5894L33.233 19.4562C32.4937 19.0022 31.7009 18.6737 30.8647 18.4755L30.5879 16.9768C30.5217 16.6175 30.2084 16.3568 29.8429 16.3568H28.1575C27.7919 16.3568 27.4786 16.6175 27.4124 16.9768L27.1357 18.4755C26.2998 18.6737 25.507 19.0022 24.7673 19.4562L23.5014 18.5894C23.2008 18.3842 22.7954 18.4217 22.5376 18.6791L21.3476 19.8686C21.089 20.1272 21.052 20.5335 21.2596 20.8345L22.1313 22.0976C21.6745 22.8336 21.3439 23.6267 21.1445 24.4664L19.6458 24.7431C19.2864 24.8093 19.0257 25.1226 19.0257 25.4881V27.174C19.0257 27.5395 19.2864 27.8528 19.6458 27.919L21.1445 28.1958C21.3439 29.035 21.6745 29.8281 22.1313 30.5645L21.2596 31.8277C21.052 32.1287 21.089 32.5349 21.3476 32.7935L22.5376 33.9831C22.7958 34.2413 23.2016 34.2791 23.5034 34.0711L24.7678 33.199C25.2472 33.495 25.7443 33.736 26.2546 33.9202V36.5303H13.8286C9.31311 36.5303 5.63878 32.8565 5.63878 28.3405C5.63878 24.084 8.96849 20.499 13.2188 20.1791C13.4618 20.161 13.6814 20.0266 13.8084 19.8185C13.9355 19.6105 13.9544 19.3539 13.8598 19.1294C13.5626 18.4238 13.4117 17.6767 13.4117 16.9086C13.4117 13.7586 15.9741 11.1961 19.1242 11.1961C19.6694 11.1961 20.222 11.2775 20.7664 11.4375C21.1168 11.5403 21.4909 11.3791 21.6566 11.053C23.3869 7.63657 26.8345 5.51367 30.6552 5.51367C36.2154 5.51367 40.7388 10.037 40.7388 15.5973C40.7388 16.3403 40.6483 17.1088 40.4703 17.8814C40.4127 18.1322 40.4859 18.3949 40.6652 18.5796C40.8441 18.7642 41.1052 18.8468 41.3572 18.7946C41.9612 18.6741 42.5837 18.6125 43.2083 18.6125C48.2546 18.6125 52.3602 22.7213 52.3602 27.7718C52.3606 32.6833 48.341 36.5302 43.2091 36.5302L43.208 36.5303Z" fill="#5F2DEE"/>
<path d="M29.0008 21.6475C26.4187 21.6475 24.318 23.7482 24.318 26.3304C24.318 28.9125 26.4187 31.0132 29.0008 31.0132C31.583 31.0132 33.6837 28.9125 33.6837 26.3304C33.6837 23.7482 31.583 21.6475 29.0008 21.6475ZM29.0008 29.4976C27.2541 29.4976 25.8331 28.0766 25.8331 26.3299C25.8331 24.5832 27.2541 23.1622 29.0008 23.1622C30.7475 23.1622 32.1685 24.5832 32.1685 26.3299C32.1685 28.0771 30.7475 29.4976 29.0008 29.4976Z" fill="#5F2DEE"/>
<path d="M30.6524 6.70364C27.2845 6.70364 24.2434 8.57823 22.7163 11.5958C22.5272 11.9692 22.6768 12.4248 23.0498 12.6139C23.1596 12.6694 23.2763 12.6957 23.391 12.6957C23.6678 12.6957 23.9346 12.544 24.0674 12.2805C25.3355 9.77557 27.8585 8.21929 30.652 8.21929C31.0706 8.21929 31.4098 7.88006 31.4098 7.46149C31.4102 7.04292 31.071 6.70364 30.6524 6.70364Z" fill="#5F2DEE"/>
<path d="M19.1242 12.3888C16.63 12.3888 14.6008 14.4183 14.6008 16.9126C14.6008 17.3311 14.9401 17.6704 15.3586 17.6704C15.7772 17.6704 16.1164 17.3311 16.1164 16.9126C16.1164 15.2534 17.4659 13.904 19.1246 13.904C19.5431 13.904 19.8823 13.5648 19.8823 13.1462C19.8819 12.728 19.5428 12.3888 19.1242 12.3888Z" fill="#5F2DEE"/>
</svg>
