<svg width="58" height="58" viewBox="0 0 58 58" fill="none" xmlns="http://www.w3.org/2000/svg">
<path d="M29.0002 16.9034C26.7769 16.9034 24.9681 18.7122 24.9681 20.9355C24.9681 23.1588 26.7769 24.9676 29.0002 24.9676C31.2236 24.9676 33.0323 23.1588 33.0323 20.9355C33.0323 18.7122 31.2236 16.9034 29.0002 16.9034ZM29.0002 23.355C27.6664 23.355 26.5808 22.2693 26.5808 20.9356C26.5808 19.6018 27.6665 18.5162 29.0002 18.5162C30.3339 18.5162 31.4196 19.6019 31.4196 20.9356C31.4192 22.2694 30.3339 23.355 29.0002 23.355Z" fill="#5F2DEE"/>
<path d="M43.5164 23.5028V21.0866C44.9598 20.2487 45.9358 18.6892 45.9358 16.9028C45.9358 14.2345 43.7656 12.0644 41.0974 12.0644C40.806 12.0644 40.5183 12.0912 40.2354 12.1452C40.2722 11.8499 40.2906 11.5538 40.2906 11.2577C40.2906 7.256 37.034 3.99973 33.0327 3.99973C30.2054 3.99973 27.6544 5.66321 26.4723 8.16427C25.5563 7.5528 24.4818 7.22546 23.3553 7.22546C20.4901 7.22546 18.1159 9.37237 17.757 12.1415C17.4757 12.0899 17.1908 12.0643 16.9038 12.0643C14.2355 12.0643 12.0654 14.2345 12.0654 16.9027C12.0654 19.0052 13.4144 20.7932 15.2912 21.4591V34.7932C14.3548 35.1269 13.6785 36.0141 13.6785 37.0641C13.6785 38.3979 14.7642 39.4835 16.0979 39.4835C17.148 39.4835 18.0351 38.8069 18.3689 37.8709H21.0996C20.9924 38.3915 20.936 38.931 20.936 39.4835V41.903H20.1296C19.6846 41.903 19.3233 42.2635 19.3233 42.7093V53.1934C19.3233 53.6392 19.6846 53.9997 20.1296 53.9997H37.8708C38.3158 53.9997 38.6771 53.6392 38.6771 53.1934V42.7093C38.6771 42.2635 38.3158 41.903 37.8708 41.903H37.0645V39.4835C37.0645 38.9313 37.008 38.3915 36.9016 37.8709L42.7096 37.8705C43.1546 37.8705 43.516 37.5099 43.516 37.0641V28.0451C44.4524 27.7114 45.1286 26.8242 45.1286 25.7741C45.1286 24.7241 44.4524 23.8369 43.516 23.5032L43.5164 23.5028ZM13.6776 16.9028C13.6776 15.1237 15.1242 13.6771 16.9033 13.6771C17.3483 13.6771 17.7873 13.7715 18.2067 13.9576C18.4664 14.072 18.7642 14.0244 18.9963 13.8607C19.2284 13.6979 19.356 13.4058 19.3356 13.1228C19.3292 13.0392 19.3228 12.956 19.3228 12.8707C19.3228 10.6474 21.1316 8.83865 23.3549 8.83865C24.4534 8.83865 25.4806 9.27484 26.2485 10.0667C26.4502 10.274 26.7467 10.3597 27.0252 10.2876C27.305 10.2168 27.5251 10.0023 27.6035 9.7246C28.2862 7.30396 30.5183 5.61282 33.0322 5.61282C36.1451 5.61282 38.6773 8.14512 38.6773 11.258C38.6773 11.8926 38.5661 12.5274 38.346 13.146C38.2331 13.4638 38.33 13.8187 38.5889 14.0348C38.8478 14.2517 39.214 14.2841 39.5065 14.1164C40.0151 13.8247 40.5498 13.677 41.0964 13.677C42.8755 13.677 44.3221 15.1236 44.3221 16.9028C44.3221 18.6819 42.8755 20.1285 41.0964 20.1285H37.8707V19.3222C37.8707 18.8772 37.5093 18.5158 37.0643 18.5158H35.837C35.7638 18.3078 35.6814 18.1037 35.5901 17.9044L36.8279 16.6666C37.1432 16.3513 37.1432 15.8415 36.8279 15.5261L34.4084 13.1067C34.0931 12.7914 33.5833 12.7914 33.2679 13.1067L32.0302 14.3445C31.8309 14.2532 31.6268 14.1712 31.4187 14.0975L31.4191 12.8706C31.4191 12.4256 31.0578 12.0642 30.6128 12.0642H27.3871C26.9421 12.0642 26.5807 12.4256 26.5807 12.8706V14.0979C26.3726 14.1711 26.1685 14.2535 25.9693 14.3448L24.7315 13.107C24.4162 12.7917 23.9064 12.7917 23.591 13.107L21.1716 15.5265C20.8563 15.8418 20.8563 16.3516 21.1716 16.667L22.4093 17.9047C22.3181 18.104 22.2361 18.3081 22.1624 18.5161L20.9355 18.5157C20.4905 18.5157 20.1291 18.8771 20.1291 19.3221V20.1284H16.9034C15.1242 20.1284 13.6776 18.6818 13.6776 16.9027L13.6776 16.9028ZM34.0352 24.6913L35.1172 25.7737L33.8383 27.0526L32.7563 25.9706C32.4998 25.7133 32.1024 25.6609 31.7863 25.8402C31.3629 26.0823 30.8999 26.2683 30.4113 26.3948C30.0555 26.4856 29.8062 26.8074 29.8062 27.1751V28.1928H28.1936V27.1751C28.1936 26.8074 27.9442 26.4864 27.5889 26.3944C27.1003 26.2687 26.6373 26.0815 26.2139 25.8398C25.8994 25.6601 25.5012 25.7125 25.2439 25.9702L24.1611 27.0526L22.8822 25.7737L23.9642 24.6917C24.2215 24.4344 24.2747 24.0378 24.0946 23.7217C23.8525 23.2983 23.6664 22.8353 23.54 22.3467C23.4491 21.9905 23.1274 21.7412 22.7596 21.7412H21.7416V20.1286H22.7592C23.127 20.1286 23.4479 19.8793 23.54 19.5239C23.6656 19.0353 23.8529 18.5723 24.0946 18.1489C24.2743 17.8328 24.2211 17.4362 23.9642 17.1789L22.8822 16.0965L24.1611 14.8176L25.2431 15.8996C25.4996 16.1577 25.8977 16.2109 26.2131 16.03C26.6365 15.7879 27.0995 15.6019 27.5881 15.4754C27.9438 15.3834 28.1927 15.0624 28.1927 14.6947L28.1931 13.677H29.8058V14.6947C29.8058 15.0624 30.0551 15.3834 30.4105 15.4754C30.8991 15.6011 31.3621 15.7883 31.7855 16.03C32.1016 16.2105 32.499 16.1573 32.7555 15.8996L33.8383 14.8176L35.1172 16.0965L34.0352 17.1785C33.7779 17.4358 33.7247 17.8324 33.9047 18.1485C34.1469 18.5719 34.3329 19.0349 34.4594 19.5235C34.5514 19.8793 34.8724 20.1282 35.2401 20.1282L36.2578 20.1286V21.7412H35.2401C34.8724 21.7412 34.5514 21.9905 34.4594 22.3459C34.3337 22.8345 34.1465 23.2975 33.9047 23.7209C33.7247 24.0374 33.7779 24.434 34.0352 24.6913ZM16.0963 37.8696C15.6521 37.8696 15.29 37.5083 15.29 37.0633C15.29 36.6183 15.6521 36.257 16.0963 36.257C16.5405 36.257 16.9026 36.6183 16.9026 37.0633C16.9026 37.5083 16.5405 37.8696 16.0963 37.8696ZM28.1928 48.3537C28.1928 47.9087 28.555 47.5474 28.9992 47.5474C29.4434 47.5474 29.8055 47.9087 29.8055 48.3537C29.8055 48.7987 29.4434 49.1601 28.9992 49.1601C28.555 49.1605 28.1928 48.7991 28.1928 48.3537ZM29.8059 52.3862V50.6251C30.7423 50.2914 31.4186 49.4042 31.4186 48.3541C31.4186 47.0203 30.3329 45.9347 28.9992 45.9347C27.6654 45.9347 26.5798 47.0204 26.5798 48.3541C26.5798 49.4042 27.2565 50.2914 28.1924 50.6251L28.1928 52.3862H20.9349V49.1605H22.5476V47.5478H20.9349V45.9351H22.5476V44.3225H20.9349V43.5161H37.0636V44.3225H35.451V45.9351H37.0636V47.5478H35.451V49.1605H37.0636V52.3862H29.8059ZM32.2253 41.9021H25.7737V39.4827C25.7737 37.7036 27.2203 36.257 28.9995 36.257C30.7786 36.257 32.2252 37.7036 32.2252 39.4827L32.2253 41.9021ZM33.838 41.9021V39.4827C33.838 36.8144 31.6678 34.6443 28.9996 34.6443C26.3313 34.6443 24.1612 36.8145 24.1612 39.4827V41.9021H22.5485V39.4827C22.5485 35.9256 25.4429 33.0311 29.0001 33.0311C32.5572 33.0311 35.4517 35.9256 35.4517 39.4827V41.9021H33.838ZM36.3855 36.2573C35.1377 33.4128 32.2985 31.4189 28.9991 31.4189C25.7001 31.4189 22.8596 33.4133 21.6127 36.2573H18.3669C18.1232 35.5742 17.5853 35.0364 16.9022 34.7926L16.9026 21.7413H20.1284V22.5477C20.1284 22.9927 20.4897 23.354 20.9347 23.354H22.162C22.2352 23.5621 22.3176 23.7662 22.4089 23.9655L21.1712 25.2032C20.8558 25.5185 20.8558 26.0284 21.1712 26.3437L23.5906 28.7631C23.9059 29.0785 24.4157 29.0785 24.7311 28.7631L25.9688 27.5254C26.1681 27.6166 26.3722 27.6987 26.5803 27.7723L26.5799 28.9996C26.5799 29.4446 26.9412 29.8059 27.3862 29.8059H30.612C31.057 29.8059 31.4183 29.4446 31.4183 28.9996V27.7723C31.6264 27.6991 31.8305 27.6166 32.0298 27.5254L33.2675 28.7631C33.5828 29.0785 34.0926 29.0785 34.408 28.7631L36.8274 26.3437C37.1427 26.0284 37.1427 25.5186 36.8274 25.2032L35.5897 23.9655C35.6809 23.7662 35.763 23.5621 35.8366 23.354L37.0636 23.3544C37.5086 23.3544 37.8699 22.9931 37.8699 22.5481V21.7417H41.0957C41.3706 21.7417 41.6391 21.7133 41.902 21.6693V23.5041C40.9656 23.8378 40.2893 24.725 40.2893 25.775C40.2893 26.8251 40.966 27.7122 41.902 28.046V36.2575L36.3855 36.2573ZM42.709 26.5799C42.2648 26.5799 41.9027 26.2178 41.9027 25.7736C41.9027 25.3294 42.2648 24.9673 42.709 24.9673C43.1532 24.9673 43.5153 25.3294 43.5153 25.7736C43.5153 26.2178 43.1532 26.5799 42.709 26.5799Z" fill="#5F2DEE"/>
</svg>
