<svg width="58" height="58" viewBox="0 0 58 58" fill="none" xmlns="http://www.w3.org/2000/svg">
<path d="M49.5592 26.0701C49.4569 20.9205 45.2285 16.7549 40.0551 16.7549C39.2678 16.7549 38.4962 16.8496 37.7403 17.0386C36.7088 10.44 31.0394 5.54227 24.2758 5.54227C16.7562 5.54227 10.6381 11.6604 10.6381 19.18C10.6381 19.4319 10.6461 19.6841 10.6618 19.9359C6.7171 21.1721 4.00049 24.8336 4.00049 29.0069C4.00049 34.2512 8.26841 38.5187 13.5123 38.5187C13.835 38.5187 14.103 38.2511 14.103 37.928C14.103 37.6052 13.8354 37.3373 13.5123 37.3373C8.92157 37.3373 5.18148 33.6048 5.18148 29.0065C5.18148 25.2032 7.74862 21.8882 11.4258 20.9433C11.7095 20.8724 11.8904 20.6048 11.8666 20.3135C11.8352 19.9355 11.8114 19.5576 11.8114 19.1716C11.8114 12.3056 17.4021 6.71495 24.2681 6.71495C30.6618 6.71495 35.9851 11.5022 36.6535 17.8492C36.6693 18.0301 36.7716 18.1877 36.9211 18.2824C37.0706 18.377 37.2596 18.4004 37.4252 18.3452C38.2758 18.0615 39.1574 17.9201 40.0551 17.9201C44.6458 17.9201 48.3783 21.6526 48.3783 26.2509V26.4636C48.3702 26.7312 48.5435 26.9754 48.8034 27.0463C51.1658 27.7156 52.8191 29.9047 52.8191 32.3691C52.8191 35.2824 50.5433 37.3221 47.2916 37.3221H45.8664C45.5437 37.3221 45.2757 37.5897 45.2757 37.9128C45.2757 38.2356 45.5433 38.5035 45.8664 38.5035H47.2916C51.1815 38.5035 54.0005 35.9207 54.0005 32.3696C54.0001 29.5587 52.1966 27.0154 49.5589 26.0705L49.5592 26.0701Z" fill="#5F2DEE"/>
<path d="M43.3938 33.5269C43.7166 33.5269 43.9846 33.2594 43.9846 32.9362C43.9846 32.6135 43.717 32.3455 43.3938 32.3455H40.5197V30.9989C40.5197 30.5105 40.3388 30.0459 40.0156 29.6841L37.756 27.1721C37.3861 26.7627 36.8506 26.5266 36.2994 26.5266H35.0474V23.999C35.0474 23.6762 34.7799 23.4083 34.4567 23.4083C34.134 23.4083 33.866 23.6758 33.866 23.999V26.5266H30.055V23.999C30.055 23.6762 29.7875 23.4083 29.4643 23.4083C29.1416 23.4083 28.8736 23.6758 28.8736 23.999V26.5266H25.0627V23.999C25.0627 23.6762 24.7951 23.4083 24.472 23.4083C24.1492 23.4083 23.8812 23.6758 23.8812 23.999V26.5266L22.6221 26.527C22.0632 26.527 21.5354 26.7632 21.1655 27.1806L18.9058 29.6926C18.583 30.0548 18.4017 30.5194 18.4017 31.0073V32.354H15.5276C15.2048 32.354 14.9369 32.6215 14.9369 32.9447C14.9369 33.2674 15.2044 33.5354 15.5276 33.5354H18.4017V37.3464H15.5276C15.2048 37.3464 14.9369 37.6139 14.9369 37.9371C14.9369 38.2598 15.2044 38.5278 15.5276 38.5278H18.4017V42.3387H15.5276C15.2048 42.3387 14.9369 42.6063 14.9369 42.9295C14.9369 43.2522 15.2044 43.5202 15.5276 43.5202H18.4017V44.8668C18.4017 45.3552 18.5826 45.8198 18.9058 46.1816L21.1655 48.6847C21.5353 49.0941 22.0709 49.3302 22.6221 49.3302H23.874V51.8578C23.874 52.1806 24.1416 52.4485 24.4647 52.4485C24.7875 52.4485 25.0554 52.181 25.0554 51.8578V49.3302H28.8664V51.8578C28.8664 52.1806 29.134 52.4485 29.4571 52.4485C29.7799 52.4485 30.0478 52.181 30.0478 51.8578V49.3302H33.8588V51.8578C33.8588 52.1806 34.1263 52.4485 34.4495 52.4485C34.7722 52.4485 35.0402 52.181 35.0402 51.8578V49.3302H36.2922C36.851 49.3302 37.3789 49.0941 37.7488 48.6766L40.0084 46.1647C40.3312 45.8024 40.5125 45.3378 40.5125 44.8499V43.5032H43.3866C43.7094 43.5032 43.9773 43.2357 43.9773 42.9125C43.9773 42.5898 43.7098 42.3218 43.3866 42.3218H40.5125V38.5109H43.3866C43.7094 38.5109 43.9773 38.2433 43.9773 37.9201C43.9773 37.5974 43.7098 37.3294 43.3866 37.3294H40.5125V33.5185L43.394 33.5193L43.3938 33.5269ZM39.3387 44.8582C39.3387 45.0553 39.2678 45.2362 39.134 45.3857L36.874 47.8976C36.7245 48.0628 36.5117 48.1575 36.2913 48.1575H22.6216C22.4012 48.1575 22.1884 48.0628 22.039 47.8976L19.7793 45.3857C19.6455 45.2438 19.5746 45.0549 19.5746 44.8582V30.9997C19.5746 30.8027 19.6455 30.6218 19.7793 30.4723L22.039 27.9603C22.1884 27.7951 22.4012 27.7004 22.6216 27.7004H36.2913C36.5117 27.7004 36.7245 27.7951 36.874 27.9603L39.1336 30.4723C39.2674 30.6141 39.3383 30.8031 39.3383 30.9997L39.3387 44.8582Z" fill="#5F2DEE"/>
<path d="M29.4569 34.8741C27.7718 34.8741 26.4019 36.2441 26.4019 37.9292C26.4019 39.6143 27.7718 40.9842 29.4569 40.9842C31.142 40.9842 32.512 39.6143 32.512 37.9292C32.512 36.2441 31.142 34.8741 29.4569 34.8741ZM29.4569 39.8032C28.4254 39.8032 27.5828 38.9607 27.5828 37.9292C27.5828 36.8977 28.4254 36.0551 29.4569 36.0551C30.4884 36.0551 31.331 36.8977 31.331 37.9292C31.331 38.9607 30.4965 39.8032 29.4569 39.8032Z" fill="#5F2DEE"/>
<path d="M36.9448 36.441L35.8581 36.3072C35.7086 35.7089 35.4563 35.1105 35.1336 34.5669L35.8186 33.6849C36.039 33.3855 36.0156 32.9685 35.7557 32.7086L34.7085 31.6771C34.4567 31.3858 34.0078 31.3463 33.6851 31.5824L32.8268 32.2597C32.2994 31.9446 31.7243 31.7008 31.0789 31.5352L30.9451 30.4014C30.8818 30.0472 30.5748 29.7873 30.2126 29.7873H28.7008C28.3228 29.7873 27.992 30.0786 27.9529 30.4409L27.8191 31.5276C27.2051 31.6851 26.6224 31.9293 26.0789 32.2521L25.2049 31.5747C24.8978 31.3386 24.457 31.3858 24.2286 31.6456L23.1499 32.7167C22.8743 32.9923 22.8586 33.4331 23.0947 33.7011L23.764 34.575C23.4412 35.1263 23.197 35.7247 23.0476 36.3153L21.9765 36.4491C21.5905 36.4886 21.2992 36.8033 21.2992 37.1969V38.7007C21.2992 39.0706 21.5591 39.37 21.9608 39.4485L23.0475 39.5823C23.197 40.1807 23.4412 40.7633 23.772 41.3226L23.0947 42.1966C22.8585 42.496 22.89 42.9211 23.1575 43.1886L24.2047 44.2201C24.4566 44.5115 24.8978 44.5586 25.2205 44.3148L26.0869 43.6298C26.6381 43.9606 27.2127 44.1968 27.8191 44.3463L27.9529 45.433C27.9924 45.8109 28.3151 46.0946 28.7007 46.0946H30.2125C30.5748 46.0946 30.8818 45.8428 30.9604 45.4491L31.0941 44.3466C31.7163 44.1971 32.3066 43.9449 32.8264 43.6221L33.7004 44.3152C34.0155 44.5513 34.4563 44.5042 34.6847 44.2366L35.7243 43.2051C35.9999 42.9609 36.0551 42.5358 35.819 42.1816L35.1417 41.3153C35.4568 40.7798 35.7005 40.1971 35.8581 39.575L36.9839 39.4413C37.3538 39.3784 37.6137 39.0714 37.6137 38.7011V37.1973C37.6064 36.7952 37.3227 36.4801 36.9448 36.441ZM36.425 38.307L35.4249 38.4251C35.0707 38.4565 34.7951 38.7245 34.7713 39.0234C34.6295 39.7008 34.3696 40.3382 33.9759 40.937C33.8107 41.1969 33.8184 41.5277 34.0154 41.7953L34.6452 42.6064L34.1178 43.1338L33.2909 42.4803C33.0625 42.3151 32.7554 42.2994 32.4327 42.4646C31.85 42.8582 31.2202 43.1181 30.5586 43.2443C30.5348 43.2523 30.5034 43.2523 30.48 43.268C30.1964 43.3627 29.984 43.6065 29.9526 43.8978L29.8345 44.9136L29.0786 44.9132L28.9525 43.8974C28.9211 43.6218 28.724 43.3776 28.4565 43.2833C28.4251 43.2676 28.3936 43.2596 28.3541 43.2596C27.6925 43.1334 27.055 42.8736 26.4881 42.4956C26.2206 42.3066 25.866 42.3147 25.5904 42.5194L24.795 43.1492L24.2675 42.6294L24.8816 41.842C25.0944 41.5979 25.1177 41.2437 24.9368 40.9524C24.5431 40.354 24.2832 39.7162 24.1495 39.0468C24.0786 38.7317 23.8187 38.4956 23.504 38.4561L22.4882 38.3381V37.5979L23.4959 37.4717C23.811 37.4322 24.0709 37.1961 24.1414 36.8734C24.2752 36.2198 24.5351 35.5743 24.9054 34.9836C25.1024 34.7161 25.0863 34.3458 24.8816 34.1096L24.2595 33.2985L24.7869 32.7711L25.6057 33.4089C25.8656 33.5979 26.2198 33.5979 26.4563 33.4246C27.0313 33.0386 27.6687 32.7791 28.3066 32.645C28.6451 32.6055 28.905 32.3456 28.9445 31.9994L29.0706 30.9917H29.8185L29.9365 31.9994C29.976 32.346 30.2516 32.6135 30.5272 32.6373C31.2203 32.7791 31.8581 33.0467 32.4408 33.4404C32.7007 33.6056 33.0315 33.5899 33.3071 33.3932L34.1025 32.7711L34.63 33.2985L34.0235 34.0859C33.8108 34.3301 33.7874 34.6842 33.9683 34.9756C34.3544 35.5663 34.6219 36.2198 34.748 36.8182C34.7875 37.1647 35.0631 37.4322 35.4016 37.4637L36.4174 37.5898V38.307L36.425 38.307Z" fill="#5F2DEE"/>
</svg>
