<svg width="58" height="58" viewBox="0 0 58 58" fill="none" xmlns="http://www.w3.org/2000/svg">
<path d="M14.3012 17.2615H7.67271V15.9359H14.3012V17.2615ZM18.9411 5.32569L15.8025 9.27293L15.6567 9.4519L11.9249 14.2178C11.8017 14.3409 11.6555 14.4386 11.4945 14.5053C11.3336 14.572 11.1611 14.6063 10.9869 14.6063C10.8127 14.6063 10.6403 14.572 10.4793 14.5053C10.3184 14.4386 10.1722 14.3409 10.049 14.2178C9.92584 14.0946 9.82813 13.9484 9.76147 13.7874C9.69482 13.6265 9.66051 13.454 9.66051 13.2798C9.66051 13.1056 9.69482 12.9332 9.76147 12.7722C9.82813 12.6113 9.92584 12.4651 10.049 12.3419L18.9411 5.32569ZM6.11171 7.46933C5.15406 9.00278 4.80969 10.8409 5.14727 12.617H5.68417V11.9541C5.67758 10.6491 6.06829 9.37292 6.80438 8.29524L6.11171 7.46933ZM12.3126 4C11.2989 3.99994 10.2964 4.21204 9.36951 4.62267C8.44267 5.0333 7.61202 5.63335 6.93098 6.38425L7.68928 7.28771C8.58918 6.46042 9.76458 5.99734 10.9869 5.98854C12.2159 5.99698 13.3974 6.46463 14.2992 7.29964L16.6523 5.44235C15.3992 4.50609 13.8769 4.00014 12.3126 4ZM16.8399 10.0982L16.6854 10.2884L16.2029 10.9049C16.2596 11.2518 16.2886 11.6026 16.2897 11.9541V12.617H19.478C19.7925 10.9581 19.515 9.24155 18.6938 7.76629L16.8399 10.0982Z" fill="#5F2DEE"/>
<path d="M50.3732 15.4583H46.7674C44.7787 15.4583 43.1615 16.7549 43.1615 18.349V51.1084C43.1615 52.7026 44.7788 53.9991 46.7674 53.9991H50.3732C52.3619 53.9991 53.9791 52.7025 53.9791 51.1084V18.349C53.9787 16.7544 52.3614 15.4583 50.3732 15.4583ZM51.5749 51.1084C51.5749 51.6403 51.0353 52.0721 50.3728 52.0721H46.7669C46.1048 52.0721 45.5648 51.6403 45.5648 51.1084V18.349C45.5648 17.8171 46.1043 17.3853 46.7669 17.3853H50.3728C51.0349 17.3853 51.5749 17.8171 51.5749 18.349V51.1084ZM32.3443 27.021H28.7385C26.7498 27.021 25.1326 28.3176 25.1326 29.9117V51.1093C25.1326 52.7036 26.7499 54 28.7385 54H32.3443C34.333 54 35.9502 52.7035 35.9502 51.1093V29.9117C35.9502 28.3171 34.3329 27.021 32.3443 27.021ZM33.5464 51.1084C33.5464 51.6403 33.0069 52.0721 32.3443 52.0721H28.7385C28.0763 52.0721 27.5363 51.6403 27.5363 51.1084V29.9108C27.5363 29.3789 28.0759 28.9471 28.7385 28.9471H32.3443C33.0064 28.9471 33.5464 29.3789 33.5464 29.9108V51.1084ZM14.3159 38.5828H10.71C8.72134 38.5828 7.10413 39.8793 7.10413 41.4734V51.1084C7.10413 52.7026 8.72146 53.9991 10.71 53.9991H14.3159C16.3045 53.9991 17.9218 52.7025 17.9218 51.1084V41.4734C17.9218 39.8788 16.3044 38.5828 14.3159 38.5828ZM15.518 51.1084C15.518 51.6403 14.9784 52.0721 14.3159 52.0721H10.71C10.0479 52.0721 9.50789 51.6403 9.50789 51.1084V41.4734C9.50789 40.9415 10.0474 40.5098 10.71 40.5098H14.3159C14.978 40.5098 15.518 40.9416 15.518 41.4734V51.1084Z" fill="#5F2DEE"/>
<path d="M16.4791 23.4445C16.4119 23.4461 16.3458 23.427 16.2899 23.3898C16.234 23.3525 16.1909 23.2988 16.1666 23.2361C16.1415 23.1738 16.135 23.1055 16.148 23.0396C16.161 22.9736 16.1927 22.9129 16.2395 22.8646C16.4315 22.6698 16.5391 22.4072 16.5391 22.1337C16.5391 21.8602 16.4315 21.5977 16.2395 21.4028L15.743 20.8993C15.5482 20.7074 15.2856 20.5998 15.0121 20.5998C14.7386 20.5998 14.476 20.7074 14.2812 20.8993C14.2166 20.9581 14.1321 20.9903 14.0448 20.9896C13.9574 20.9888 13.8735 20.9551 13.8098 20.8953C13.7462 20.8355 13.7075 20.7539 13.7014 20.6667C13.7014 20.3904 13.5916 20.1255 13.3962 19.9301C13.2009 19.7348 12.936 19.625 12.6597 19.625H11.9652C11.689 19.625 11.4241 19.7348 11.2287 19.9301C11.0334 20.1255 10.9236 20.3904 10.9236 20.6667C10.9191 20.7547 10.8813 20.8376 10.818 20.8987C10.7546 20.9599 10.6704 20.9947 10.5824 20.9961C10.4943 20.9975 10.409 20.9654 10.3438 20.9063C10.1489 20.7144 9.88631 20.6068 9.61286 20.6068C9.33935 20.6068 9.07684 20.7144 8.88197 20.9063L8.37843 21.4029C8.18658 21.5977 8.07898 21.8602 8.07898 22.1338C8.07898 22.4072 8.18658 22.6698 8.37843 22.8647C8.4253 22.9129 8.45708 22.9736 8.47001 23.0396C8.48293 23.1055 8.47647 23.1738 8.4514 23.2361C8.42753 23.2977 8.38549 23.3506 8.33096 23.3877C8.27643 23.425 8.21182 23.4448 8.14583 23.4445C7.86956 23.4445 7.60464 23.5543 7.40927 23.7496C7.21388 23.945 7.10413 24.2099 7.10413 24.4861V25.1806C7.10413 25.4568 7.21388 25.7218 7.40927 25.9171C7.60465 26.1125 7.86956 26.2223 8.14583 26.2223C8.21303 26.2206 8.2791 26.2397 8.33501 26.277C8.39101 26.3142 8.434 26.3679 8.45829 26.4306C8.48344 26.4929 8.48991 26.5612 8.47698 26.6272C8.46397 26.6931 8.43219 26.7539 8.38541 26.8021C8.19347 26.9969 8.08596 27.2595 8.08596 27.533C8.08596 27.8065 8.19347 28.0691 8.38541 28.2639L8.88886 28.7674C9.08373 28.9593 9.3463 29.0668 9.61975 29.0668C9.89327 29.0668 10.1558 28.9593 10.3506 28.7674C10.3989 28.7206 10.4597 28.6887 10.5256 28.6758C10.5916 28.6629 10.6598 28.6694 10.7222 28.6945C10.7849 28.7188 10.8385 28.7618 10.8758 28.8178C10.9131 28.8737 10.9322 28.9398 10.9305 29.007C10.9305 29.2832 11.0403 29.5482 11.2357 29.7435C11.431 29.9388 11.6959 30.0486 11.9722 30.0486H12.6667C12.9429 30.0486 13.2078 29.9388 13.4032 29.7435C13.5985 29.5481 13.7083 29.2832 13.7083 29.007C13.7066 28.9398 13.7257 28.8737 13.763 28.8178C13.8003 28.7618 13.854 28.7188 13.9166 28.6945C13.979 28.6694 14.0473 28.6629 14.1132 28.6758C14.1792 28.6887 14.2399 28.7206 14.2881 28.7674C14.483 28.9593 14.7455 29.0668 15.019 29.0668C15.2926 29.0668 15.5551 28.9593 15.7499 28.7674L16.2534 28.2639H16.2535C16.4453 28.0691 16.5529 27.8065 16.5529 27.533C16.5529 27.2595 16.4453 26.9969 16.2535 26.8021C16.2066 26.7539 16.1748 26.6931 16.1619 26.6272C16.149 26.5612 16.1554 26.4929 16.1805 26.4306C16.2039 26.3701 16.2449 26.318 16.2981 26.2809C16.3512 26.2438 16.4143 26.2234 16.4791 26.2223C16.7554 26.2223 17.0204 26.1125 17.2157 25.9171C17.411 25.7218 17.5208 25.4568 17.5208 25.1806V24.4861C17.5208 24.2099 17.411 23.945 17.2157 23.7496C17.0204 23.5543 16.7554 23.4445 16.4791 23.4445L16.4791 23.4445ZM16.8263 25.1806H16.8264C16.8264 25.2727 16.7898 25.361 16.7246 25.4261C16.6595 25.4912 16.5712 25.5278 16.4791 25.5278C16.2741 25.5252 16.073 25.5849 15.9025 25.6989C15.732 25.813 15.6001 25.9761 15.5243 26.1667C15.4464 26.3558 15.426 26.5637 15.4656 26.7643C15.505 26.9651 15.6028 27.1497 15.7465 27.2952C15.8081 27.3597 15.8424 27.4455 15.8424 27.5348C15.8424 27.6239 15.8081 27.7097 15.7465 27.7743L15.2465 28.2743C15.1819 28.3359 15.0961 28.3702 15.0069 28.3702C14.9177 28.3702 14.8319 28.3359 14.7673 28.2743C14.5718 28.0877 14.3115 27.9844 14.0413 27.9863C13.771 27.9881 13.512 28.0948 13.3191 28.284C13.1261 28.4731 13.0142 28.7299 13.007 29C13.007 29.0921 12.9703 29.1804 12.9052 29.2455C12.8401 29.3107 12.7518 29.3473 12.6597 29.3473H11.9653C11.8732 29.3473 11.7849 29.3106 11.7197 29.2455C11.6546 29.1804 11.6181 29.0921 11.6181 29C11.6197 28.7951 11.5597 28.5945 11.4457 28.4242C11.3317 28.2539 11.1691 28.1218 10.9792 28.0452C10.7907 27.9635 10.5819 27.9411 10.3804 27.9808C10.1789 28.0205 9.99417 28.1204 9.85073 28.2674C9.78612 28.329 9.70032 28.3633 9.61116 28.3633C9.52191 28.3633 9.43611 28.329 9.3715 28.2674L8.87158 27.7744C8.80998 27.7097 8.77561 27.6239 8.77561 27.5348C8.77561 27.4455 8.80998 27.3597 8.87158 27.2952C9.01527 27.1497 9.11296 26.9651 9.1525 26.7644C9.19204 26.5637 9.17163 26.3559 9.09375 26.1667C9.01837 25.9772 8.88751 25.8149 8.71839 25.7009C8.54928 25.587 8.34975 25.5267 8.14584 25.5279C8.05375 25.5279 7.96544 25.4913 7.90031 25.4261C7.83518 25.361 7.79857 25.2727 7.79857 25.1806V24.4862C7.79857 24.3941 7.83518 24.3058 7.90031 24.2406C7.96544 24.1755 8.05374 24.139 8.14584 24.139C8.41781 24.1334 8.67686 24.0216 8.86752 23.8275C9.05825 23.6334 9.16533 23.3724 9.16611 23.1004C9.16688 22.8283 9.06109 22.5668 8.87157 22.3716C8.80998 22.307 8.7756 22.2212 8.7756 22.1321C8.7756 22.0428 8.80998 21.957 8.87157 21.8924L9.3715 21.3925C9.43611 21.3309 9.52191 21.2965 9.61116 21.2965C9.70032 21.2965 9.78613 21.3309 9.85073 21.3925C10.0459 21.582 10.3074 21.6878 10.5795 21.687C10.8515 21.6862 11.1125 21.5791 11.3066 21.3884C11.5007 21.1978 11.6125 20.9387 11.6181 20.6667C11.6181 20.5746 11.6546 20.4863 11.7197 20.4212C11.7849 20.3561 11.8732 20.3195 11.9653 20.3195H12.6597C12.7518 20.3195 12.8401 20.3561 12.9052 20.4212C12.9704 20.4863 13.007 20.5746 13.007 20.6667C13.0108 20.9396 13.1215 21.2 13.3152 21.392C13.5091 21.5841 13.7704 21.6924 14.0433 21.6938C14.3161 21.6952 14.5786 21.5895 14.7743 21.3994C14.8388 21.3378 14.9247 21.3035 15.0139 21.3035C15.1031 21.3035 15.1889 21.3378 15.2535 21.3994L15.7535 21.8994C15.815 21.964 15.8494 22.0498 15.8494 22.1389C15.8494 22.2282 15.815 22.314 15.7535 22.3785C15.5669 22.5741 15.4636 22.8344 15.4654 23.1046C15.4672 23.3748 15.574 23.6338 15.7631 23.8268C15.9522 24.0197 16.2091 24.1317 16.4791 24.139C16.5712 24.139 16.6595 24.1755 16.7247 24.2406C16.7898 24.3057 16.8264 24.394 16.8264 24.4861L16.8263 25.1806Z" fill="#5F2DEE"/>
<path d="M12.3126 22.0558C11.5758 22.0558 10.8693 22.3484 10.3484 22.8694C9.82745 23.3903 9.53479 24.0968 9.53479 24.8336C9.53479 25.5702 9.82745 26.2768 10.3484 26.7977C10.8693 27.3186 11.5758 27.6113 12.3126 27.6113C13.0492 27.6113 13.7558 27.3186 14.2767 26.7977C14.7976 26.2768 15.0903 25.5702 15.0903 24.8336C15.0903 24.0968 14.7976 23.3903 14.2767 22.8694C13.7558 22.3484 13.0492 22.0558 12.3126 22.0558ZM12.3126 26.9169C11.76 26.9169 11.2301 26.6974 10.8394 26.3067C10.4487 25.916 10.2292 25.3861 10.2292 24.8336C10.2292 24.281 10.4487 23.7512 10.8394 23.3605C11.2301 22.9698 11.76 22.7503 12.3126 22.7503C12.865 22.7503 13.3949 22.9698 13.7856 23.3605C14.1764 23.7512 14.3958 24.281 14.3958 24.8336C14.3958 25.3861 14.1764 25.916 13.7856 26.3067C13.3949 26.6974 12.865 26.9169 12.3126 26.9169Z" fill="#5F2DEE"/>
<path d="M48.7529 8.14148L44.1286 8.59156L46.8305 12.3712L48.7529 8.14148ZM7.12209 37.9013L7.35608 38.2286L46.0409 10.5747L45.8069 10.2474L45.5729 9.92008L6.88809 37.5739L7.12209 37.9013Z" fill="#5F2DEE"/>
</svg>
