<svg width="58" height="58" viewBox="0 0 58 58" fill="none" xmlns="http://www.w3.org/2000/svg">
<path d="M28.9448 9.42526C28.8212 9.4304 28.7047 9.4554 28.6136 9.4941L12.2687 16.7279C11.9605 16.8649 11.7468 17.1913 11.744 17.5287C11.744 27.535 13.945 34.0533 17.183 38.6365C20.4212 43.2189 24.6481 45.8185 28.5169 48.1614C28.8162 48.3416 29.1666 48.3309 29.428 48.1614C33.297 45.8183 37.5232 43.2183 40.7618 38.6365C44.0006 34.054 46.2012 27.5359 46.2012 17.5287C46.1984 17.1913 45.9847 16.8649 45.6765 16.7279L29.3316 9.4941C29.2001 9.43519 29.0688 9.42012 28.9448 9.42526ZM28.9726 11.2752L44.4064 18.0949C44.3191 27.4856 42.265 33.4568 39.3263 37.6147C36.4427 41.6946 32.6829 44.1114 28.9727 46.3668C25.262 44.111 21.5026 41.695 18.6192 37.6147C15.6808 33.4566 13.6265 27.4856 13.5391 18.0949L28.9726 11.2752Z" fill="#5F2DEE"/>
<path d="M43.1132 15.5586C43.1132 15.7756 43.289 15.9515 43.506 15.9515C43.7229 15.9515 43.8988 15.7756 43.8988 15.5586H43.1132ZM43.506 13.7349L43.2013 13.4869L43.1132 13.5952V13.7349H43.506ZM48.65 4.84035C48.65 5.9974 49.588 6.93538 50.745 6.93538C51.9021 6.93538 52.8401 5.9974 52.8401 4.84035C52.8401 3.6833 51.9021 2.74533 50.745 2.74533C49.588 2.74533 48.65 3.6833 48.65 4.84035ZM43.506 15.5586H43.8988V13.7349H43.506H43.1132V15.5586H43.506ZM43.506 13.7349L43.8106 13.9828L51.0497 5.08831L50.745 4.84035L50.4404 4.59239L43.2013 13.4869L43.506 13.7349Z" fill="#5F2DEE"/>
<path d="M15.2794 15.5586C15.2794 15.7756 15.1035 15.9515 14.8866 15.9515C14.6696 15.9515 14.4938 15.7756 14.4938 15.5586H15.2794ZM14.8866 13.7349L15.1913 13.4869L15.2794 13.5952V13.7349H14.8866ZM9.74256 4.84035C9.74256 5.9974 8.80459 6.93538 7.64754 6.93538C6.49049 6.93538 5.55252 5.9974 5.55252 4.84035C5.55252 3.6833 6.49049 2.74533 7.64754 2.74533C8.80459 2.74533 9.74256 3.6833 9.74256 4.84035ZM14.8866 15.5586H14.4938V13.7349H14.8866H15.2794V15.5586H14.8866ZM14.8866 13.7349L14.5819 13.9828L7.34288 5.08831L7.64754 4.84035L7.9522 4.59239L15.1913 13.4869L14.8866 13.7349Z" fill="#5F2DEE"/>
<path d="M37.9224 14.3522C37.9224 14.5691 38.0982 14.745 38.3152 14.745C38.5321 14.745 38.708 14.5691 38.708 14.3522H37.9224ZM38.3152 11.406L37.9936 11.1804L37.9224 11.282V11.406H38.3152ZM41.1023 4.44756C41.1023 5.60461 42.0403 6.54259 43.1973 6.54259C44.3544 6.54259 45.2924 5.60461 45.2924 4.44756C45.2924 3.29051 44.3544 2.35254 43.1973 2.35254C42.0403 2.35254 41.1023 3.29051 41.1023 4.44756ZM38.3152 14.3522H38.708V11.406H38.3152H37.9224V14.3522H38.3152ZM38.3152 11.406L38.6367 11.6317L43.5189 4.67318L43.1973 4.44756L42.8758 4.22195L37.9936 11.1804L38.3152 11.406Z" fill="#5F2DEE"/>
<path d="M20.4702 14.3522C20.4702 14.5691 20.2943 14.745 20.0774 14.745C19.8604 14.745 19.6846 14.5691 19.6846 14.3522H20.4702ZM20.0774 11.406L20.399 11.1804L20.4702 11.282V11.406H20.0774ZM17.2903 4.44756C17.2903 5.60461 16.3523 6.54259 15.1952 6.54259C14.0382 6.54259 13.1002 5.60461 13.1002 4.44756C13.1002 3.29051 14.0382 2.35254 15.1952 2.35254C16.3523 2.35254 17.2903 3.29051 17.2903 4.44756ZM20.0774 14.3522H19.6846V11.406H20.0774H20.4702V14.3522H20.0774ZM20.0774 11.406L19.7558 11.6317L14.8737 4.67318L15.1952 4.44756L15.5168 4.22195L20.399 11.1804L20.0774 11.406Z" fill="#5F2DEE"/>
<path d="M33.9943 11.4902C33.9943 11.7072 34.1701 11.883 34.3871 11.883C34.604 11.883 34.7799 11.7072 34.7799 11.4902L33.9943 11.4902ZM32.2921 4.58786C32.2921 5.74491 33.23 6.68289 34.3871 6.68289C35.5441 6.68289 36.4821 5.74491 36.4821 4.58786C36.4821 3.43081 35.5441 2.49284 34.3871 2.49284C33.23 2.49284 32.2921 3.43081 32.2921 4.58786ZM34.3871 11.4902L34.7799 11.4902L34.7799 4.58786L34.3871 4.58786L33.9943 4.58786L33.9943 11.4902L34.3871 11.4902Z" fill="#5F2DEE"/>
<path d="M24.3983 11.4902C24.3983 11.7072 24.2224 11.883 24.0055 11.883C23.7885 11.883 23.6127 11.7072 23.6127 11.4902L24.3983 11.4902ZM26.1005 4.58786C26.1005 5.74491 25.1625 6.68289 24.0055 6.68289C22.8484 6.68289 21.9105 5.74491 21.9105 4.58786C21.9105 3.43081 22.8484 2.49284 24.0055 2.49284C25.1625 2.49284 26.1005 3.43081 26.1005 4.58786ZM24.0055 11.4902L23.6127 11.4902L23.6127 4.58786L24.0055 4.58786L24.3983 4.58786L24.3983 11.4902L24.0055 11.4902Z" fill="#5F2DEE"/>
<path d="M13.4247 30.2304C13.5781 30.077 13.5781 29.8283 13.4247 29.6749C13.2713 29.5214 13.0226 29.5214 12.8692 29.6749L13.4247 30.2304ZM9.83606 33.2635L9.5583 32.9857L9.44324 33.1008V33.2635H9.83606ZM7.74104 37.809C7.74104 38.966 8.67901 39.904 9.83606 39.904C10.9931 39.904 11.9311 38.966 11.9311 37.809C11.9311 36.6519 10.9931 35.7139 9.83606 35.7139C8.67901 35.7139 7.74104 36.6519 7.74104 37.809ZM13.1469 29.9526L12.8692 29.6749L9.5583 32.9857L9.83606 33.2635L10.1138 33.5413L13.4247 30.2304L13.1469 29.9526ZM9.83606 33.2635H9.44324V37.809H9.83606H10.2289V33.2635H9.83606Z" fill="#5F2DEE"/>
<path d="M43.537 30.2304C43.3836 30.077 43.3836 29.8283 43.537 29.6749C43.6904 29.5214 43.9391 29.5214 44.0925 29.6749L43.537 30.2304ZM47.1256 33.2635L47.4034 32.9857L47.5184 33.1008V33.2635H47.1256ZM49.2206 37.809C49.2206 38.966 48.2827 39.904 47.1256 39.904C45.9686 39.904 45.0306 38.966 45.0306 37.809C45.0306 36.6519 45.9686 35.7139 47.1256 35.7139C48.2827 35.7139 49.2206 36.6519 49.2206 37.809ZM43.8147 29.9526L44.0925 29.6749L47.4034 32.9857L47.1256 33.2635L46.8478 33.5413L43.537 30.2304L43.8147 29.9526ZM47.1256 33.2635H47.5184V37.809H47.1256H46.7328V33.2635H47.1256Z" fill="#5F2DEE"/>
<path d="M15.3607 34.7758C15.5141 34.6224 15.5141 34.3737 15.3607 34.2203C15.2073 34.0669 14.9586 34.0669 14.8052 34.2203L15.3607 34.7758ZM13.2592 36.3218L12.9814 36.0441L12.8663 36.1591V36.3218H13.2592ZM11.1641 47.6294C11.1641 48.7864 12.1021 49.7244 13.2592 49.7244C14.4162 49.7244 15.3542 48.7864 15.3542 47.6294C15.3542 46.4723 14.4162 45.5343 13.2592 45.5343C12.1021 45.5343 11.1641 46.4723 11.1641 47.6294ZM15.0829 34.498L14.8052 34.2203L12.9814 36.0441L13.2592 36.3218L13.5369 36.5996L15.3607 34.7758L15.0829 34.498ZM13.2592 36.3218H12.8663V47.6294H13.2592H13.652V36.3218H13.2592Z" fill="#5F2DEE"/>
<path d="M41.601 34.7758C41.4476 34.6224 41.4476 34.3737 41.601 34.2203C41.7544 34.0669 42.0031 34.0669 42.1565 34.2203L41.601 34.7758ZM43.7025 36.3218L43.9803 36.0441L44.0953 36.1591V36.3218H43.7025ZM45.7975 47.6294C45.7975 48.7864 44.8596 49.7244 43.7025 49.7244C42.5455 49.7244 41.6075 48.7864 41.6075 47.6294C41.6075 46.4723 42.5455 45.5343 43.7025 45.5343C44.8596 45.5343 45.7975 46.4723 45.7975 47.6294ZM41.8787 34.498L42.1565 34.2203L43.9803 36.0441L43.7025 36.3218L43.4248 36.5996L41.601 34.7758L41.8787 34.498ZM43.7025 36.3218H44.0953V47.6294H43.7025H43.3097V36.3218H43.7025Z" fill="#5F2DEE"/>
<path d="M20.3553 42.8847C20.5087 42.7313 20.5087 42.4826 20.3553 42.3292C20.2019 42.1758 19.9532 42.1758 19.7998 42.3292L20.3553 42.8847ZM18.7307 43.9537L18.4529 43.676L18.3379 43.791V43.9537H18.7307ZM16.6357 54.4476C16.6357 55.6046 17.5737 56.5426 18.7307 56.5426C19.8878 56.5426 20.8257 55.6046 20.8257 54.4476C20.8257 53.2905 19.8878 52.3525 18.7307 52.3525C17.5737 52.3525 16.6357 53.2905 16.6357 54.4476ZM20.0775 42.6069L19.7998 42.3292L18.4529 43.676L18.7307 43.9537L19.0085 44.2315L20.3553 42.8847L20.0775 42.6069ZM18.7307 43.9537H18.3379V54.4476H18.7307H19.1235V43.9537H18.7307Z" fill="#5F2DEE"/>
<path d="M36.6064 42.8847C36.453 42.7313 36.453 42.4826 36.6064 42.3292C36.7598 42.1758 37.0085 42.1758 37.1619 42.3292L36.6064 42.8847ZM38.231 43.9537L38.5087 43.676L38.6238 43.791V43.9537H38.231ZM40.326 54.4476C40.326 55.6046 39.388 56.5426 38.231 56.5426C37.0739 56.5426 36.1359 55.6046 36.1359 54.4476C36.1359 53.2905 37.0739 52.3525 38.231 52.3525C39.388 52.3525 40.326 53.2905 40.326 54.4476ZM36.8842 42.6069L37.1619 42.3292L38.5087 43.676L38.231 43.9537L37.9532 44.2315L36.6064 42.8847L36.8842 42.6069ZM38.231 43.9537H38.6238V54.4476H38.231H37.8381V43.9537H38.231Z" fill="#5F2DEE"/>
<path d="M28.9997 19.094C30.3499 19.094 31.6477 19.6173 32.6202 20.554C33.5928 21.4907 34.1644 22.7678 34.215 24.1172L34.2185 24.3129H35.0883C35.5272 24.3127 35.9499 24.4785 36.2718 24.7769C36.5936 25.0753 36.7907 25.4844 36.8236 25.922L36.828 26.0525V34.7506C36.8281 35.1895 36.6623 35.6122 36.3639 35.934C36.0655 36.2558 35.6565 36.4529 35.2188 36.4858L35.0883 36.4902H22.911C22.4721 36.4903 22.0494 36.3246 21.7276 36.0261C21.4058 35.7277 21.2087 35.3187 21.1757 34.881L21.1714 34.7506V26.0525C21.1712 25.6136 21.337 25.1909 21.6354 24.8691C21.9339 24.5473 22.3429 24.3501 22.7805 24.3172L22.911 24.3129H23.7808C23.7808 22.9287 24.3307 21.6013 25.3094 20.6226C26.2881 19.6439 27.6155 19.094 28.9997 19.094ZM35.0883 26.0525H22.911V34.7506H35.0883V26.0525ZM28.9997 27.7921C29.3707 27.7922 29.732 27.911 30.0308 28.131C30.3295 28.3511 30.5501 28.6609 30.6603 29.0152C30.7705 29.3695 30.7645 29.7498 30.6431 30.1004C30.5218 30.4511 30.2916 30.7538 29.986 30.9643L29.8695 31.0382V32.1411C29.8692 32.3628 29.7843 32.5761 29.6322 32.7373C29.48 32.8985 29.272 32.9955 29.0506 33.0085C28.8293 33.0215 28.6114 32.9495 28.4414 32.8072C28.2714 32.6649 28.1621 32.4631 28.1359 32.2429L28.1299 32.1411V31.0382C27.7982 30.8467 27.5391 30.5512 27.3925 30.1974C27.246 29.8436 27.2203 29.4514 27.3194 29.0815C27.4185 28.7116 27.6369 28.3847 27.9407 28.1516C28.2445 27.9185 28.6167 27.7921 28.9997 27.7921ZM28.9997 20.8336C28.0769 20.8336 27.192 21.2002 26.5395 21.8527C25.887 22.5052 25.5204 23.3901 25.5204 24.3129H32.4789C32.4789 23.3901 32.1123 22.5052 31.4599 21.8527C30.8074 21.2002 29.9224 20.8336 28.9997 20.8336Z" fill="#5F2DEE"/>
</svg>
