<svg width="58" height="58" viewBox="0 0 58 58" fill="none" xmlns="http://www.w3.org/2000/svg">
<path fill-rule="evenodd" clip-rule="evenodd" d="M25.5307 17.4503C25.521 17.5295 25.5219 17.6056 25.5754 17.6654C25.629 17.726 25.7038 17.7357 25.7843 17.7357L27.7472 17.7561C28.0703 17.9738 28.6203 18.3517 29.0323 18.3517C29.4452 18.3517 29.9952 17.9738 30.3174 17.7561L32.2803 17.7357C32.3613 17.7357 32.4356 17.726 32.4892 17.6654C32.5427 17.6056 32.5436 17.5299 32.5347 17.4503C32.3777 16.1118 31.9024 14.3346 31.5055 13.2536C31.0962 12.1362 30.2028 11.6119 29.0328 11.6119C27.8637 11.6119 26.9694 12.1363 26.5601 13.2536C26.1632 14.3342 25.6879 16.1117 25.5317 17.4503H25.5307ZM27.8795 46.8989C27.1874 46.8989 26.6202 46.3489 26.5847 45.6568L24.7762 33.8993L24.6576 33.1546C23.6712 33.2214 22.7517 32.8461 22.876 31.6279L24.1119 21.3467C24.2717 20.4236 24.8575 19.8868 25.4934 19.6183L26.6563 19.1815C26.9223 19.0744 27.094 19.1067 27.2993 19.3766L28.9259 21.2957C28.9803 21.3581 29.0839 21.3581 29.1383 21.2957L30.7649 19.3766C30.9702 19.1063 31.1419 19.0744 31.4078 19.1815L32.5708 19.6183C33.2076 19.8869 33.7925 20.4236 33.9523 21.3467L35.1882 31.6279C35.3121 32.8461 34.3934 33.2213 33.4066 33.1546L33.2889 33.8993L31.4794 45.6568C31.4445 46.3488 30.8767 46.8989 30.1846 46.8989H27.8795ZM12.5424 11.093C14.054 11.093 15.2783 12.3174 15.2783 13.8298C15.2783 15.3422 14.3062 17.6823 12.5424 17.6823C10.7777 17.6823 9.80549 15.3424 9.80549 13.8298C9.80549 12.3173 11.0299 11.093 12.5424 11.093ZM14.4863 18.5996L16.8807 19.5001C17.7803 19.8418 18.3923 20.5799 18.5547 21.5162L19.2565 25.4585C19.4189 26.3581 19.3821 27.1503 19.1485 28.0321L17.7626 33.1625C17.6002 33.7573 17.0966 34.1533 16.4838 34.1533H16.3223L15.674 45.6378C15.6381 46.3396 15.0625 46.898 14.3597 46.898H10.7241C10.0214 46.898 9.44522 46.3396 9.40976 45.6378L8.76149 34.1533H8.59997C7.98755 34.1533 7.48353 33.7573 7.32114 33.1625L5.93526 28.0321C5.70073 27.1502 5.66489 26.3582 5.82729 25.4585L6.5291 21.5162C6.69061 20.5799 7.30303 19.8413 8.20305 19.5001L10.5975 18.5996C10.8678 18.4917 11.1015 18.4917 11.3714 18.5461L12.2356 18.7439C12.4516 18.7974 12.6317 18.7974 12.8472 18.7439L13.7114 18.5461C13.9817 18.4917 14.2154 18.4917 14.4853 18.5996H14.4863ZM13.4066 19.7882C13.2088 19.824 12.9207 19.8603 12.5782 19.8603C12.2003 19.8603 11.8764 19.8236 11.6963 19.7515C11.6595 19.7515 11.6241 19.7701 11.6241 19.7882C11.5706 19.9497 11.6786 20.094 11.7865 20.2387L12.0746 20.6157L11.552 27.9068C11.5343 28.0869 11.5706 28.267 11.6786 28.4285L12.3083 29.1848C12.3627 29.275 12.4525 29.3104 12.5419 29.3104C12.6331 29.3104 12.7229 29.2746 12.7764 29.1848L13.4061 28.4285C13.515 28.267 13.5504 28.0869 13.5327 27.9068L13.0101 20.6157L13.2982 20.2387C13.4061 20.1121 13.5141 19.9683 13.4782 19.824C13.4605 19.8063 13.4605 19.7882 13.4424 19.7882C13.4238 19.7705 13.4238 19.7705 13.4057 19.7882H13.4066ZM45.5218 11.0925C47.0343 11.0925 48.2587 12.317 48.2587 13.8294C48.2587 15.3419 47.2865 17.6818 45.5218 17.6818C43.758 17.6818 42.7858 15.3419 42.7858 13.8294C42.7858 12.3168 44.0094 11.0925 45.5218 11.0925ZM47.4657 18.5992L49.8601 19.4997C50.7597 19.8413 51.3727 20.5794 51.5341 21.5158L52.2359 25.4581C52.3983 26.3577 52.3625 27.1498 52.1279 28.0317L50.742 33.1621C50.5796 33.7568 50.0761 34.1529 49.4641 34.1529H49.3017L48.6534 45.6373C48.6176 46.3391 48.0419 46.8976 47.3401 46.8976H43.7035C43.0017 46.8976 42.4256 46.3391 42.3892 45.6373L41.7418 34.1529H41.5794C40.9679 34.1529 40.463 33.7568 40.3015 33.1621L38.9147 28.0317C38.6811 27.1498 38.6444 26.3577 38.8068 25.4581L39.5086 21.5158C39.671 20.5794 40.2825 19.8409 41.1825 19.4997L43.5769 18.5992C43.8473 18.4912 44.081 18.4912 44.3509 18.5457L45.2151 18.7435C45.431 18.797 45.6111 18.797 45.8275 18.7435L46.6908 18.5457C46.9612 18.4912 47.1957 18.4912 47.4648 18.5992H47.4657ZM46.386 19.7877C46.1882 19.8236 45.9001 19.8599 45.5585 19.8599C45.1806 19.8599 44.8558 19.8231 44.6757 19.751C44.6399 19.751 44.6045 19.7696 44.6045 19.7877C44.55 19.9493 44.658 20.0935 44.766 20.2382L45.0541 20.6152L44.5323 27.9063C44.5146 28.0864 44.55 28.2665 44.658 28.4281L45.2886 29.1843C45.3421 29.2746 45.432 29.31 45.5222 29.31C45.6125 29.31 45.7023 29.2741 45.7568 29.1843L46.3864 28.4281C46.4944 28.2665 46.5307 28.0865 46.5121 27.9063L45.9904 20.6152L46.2785 20.2382C46.3864 20.1117 46.4944 19.9679 46.4586 19.8236C46.44 19.8059 46.44 19.7877 46.4218 19.7877C46.4041 19.77 46.4041 19.77 46.386 19.7877Z" fill="white"/>
</svg>
