<svg width="58" height="58" viewBox="0 0 58 58" fill="none" xmlns="http://www.w3.org/2000/svg">
<path d="M17.3736 22.2642C17.6333 21.5052 18.296 20.6482 19.3989 20.2595L19.3708 19.5958C18.8053 19.7653 18.2879 20.0418 17.8582 20.4242C17.3576 20.8701 16.9804 21.4346 16.7676 22.0567C16.7193 22.1976 16.6843 22.3368 16.6556 22.4749L17.241 22.8764C17.2601 22.6801 17.3017 22.4742 17.3736 22.2642Z" fill="#5F2DEE"/>
<path d="M16.3968 16.6102L17.4537 15.6818L16.0374 14.226L14.8692 15.0402L16.3968 16.6102Z" fill="#5F2DEE"/>
<path d="M11.0363 11.101L14.8692 15.0402L16.0374 14.226L12.0934 10.1725L11.0363 11.101Z" fill="#5F2DEE"/>
<path d="M28.5787 4.3259V6.3849L29.3116 4.3259H28.5787Z" fill="#5F2DEE"/>
<path d="M22.1715 19.5111C22.1003 19.6329 22.0914 19.7717 22.1307 19.895L22.7729 18.7413C22.5444 18.9651 22.3401 19.2223 22.1715 19.5111Z" fill="#5F2DEE"/>
<path d="M19.6972 20.1617C19.7668 20.9604 19.9955 21.8062 20.3812 22.6875C20.4071 22.7465 20.4513 22.7887 20.5012 22.8217L20.8663 22.1662C20.0818 20.2117 20.1442 18.4708 21.0743 17.224C21.8392 16.1987 23.1401 15.6053 24.522 15.5995L24.8724 14.9702C24.1319 14.9253 23.3911 15.0229 22.7038 15.2741C21.8275 15.5944 21.0866 16.1363 20.5607 16.8409C20.0086 17.5813 19.7113 18.4621 19.6776 19.4586C19.6769 19.4754 19.6768 19.4921 19.6763 19.5086C19.5718 19.5316 19.472 19.5654 19.3708 19.5958L19.399 20.2595C19.4968 20.225 19.5925 20.1883 19.6972 20.1617Z" fill="#5F2DEE"/>
<path d="M28.5787 11.8284H30.0182V4.3259H29.3116L28.5787 6.38508V11.8284Z" fill="#5F2DEE"/>
<path d="M4.68256 28.201H7.79875L12.1274 26.8333H4.68256V28.201Z" fill="#5F2DEE"/>
<path d="M18.802 24.6831C19.1059 24.4818 18.8909 24.0103 18.5395 24.1076C18.2217 24.1956 17.7837 24.2381 17.5035 23.9404C17.2859 23.7096 17.1981 23.321 17.241 22.8764L16.6556 22.4749C16.496 23.2408 16.629 23.9467 17.0372 24.3797C17.2053 24.5582 17.4114 24.6825 17.647 24.7508C17.4568 24.9136 17.2866 25.0824 17.126 25.2539L18.6932 24.7587C18.7299 24.7338 18.7647 24.7082 18.802 24.6831Z" fill="#5F2DEE"/>
<path d="M28.9161 18.7055V19.1627L29.5569 21.2884V18.5968L29.5391 18.5458C29.2226 17.6338 28.7155 16.8791 28.0477 16.2809L28.5335 17.8923C28.6791 18.1477 28.8121 18.4147 28.9161 18.7055Z" fill="#5F2DEE"/>
<path d="M37.1879 18.9577C36.0294 18.0703 34.6796 17.4608 33.1696 17.1134C32.9001 17.0515 32.7555 16.7577 32.8725 16.5072C32.9616 16.3164 33.1749 16.2165 33.378 16.2715C34.9407 16.6945 36.2906 17.2916 37.4457 18.0476L37.9581 16.2385C37.4311 15.9142 36.886 15.6085 36.3103 15.3382C34.7758 14.6174 33.0791 14.0955 31.2671 13.7866L30.8931 13.7227V25.7218L33.1501 33.2114L37.1879 18.9577Z" fill="#5F2DEE"/>
<path d="M28.9161 30.4872L29.557 30.8994V21.2884L28.9161 19.1627V30.4872Z" fill="#5F2DEE"/>
<path d="M25.2803 15.6495C26.6964 15.8687 27.8381 16.6739 28.5335 17.8923L28.0477 16.2809C27.9781 16.2185 27.9157 16.1492 27.8427 16.0903C27.1422 15.529 26.2899 15.1575 25.3781 15.0164C25.21 14.9906 25.0413 14.9805 24.8725 14.9702L24.522 15.5996C24.7732 15.5987 25.0263 15.6103 25.2803 15.6495Z" fill="#5F2DEE"/>
<path d="M26.8262 28.5246C26.95 28.2828 26.8272 27.9876 26.57 27.8999C26.359 27.8281 26.1268 27.9221 26.0265 28.1211C25.9594 28.2539 25.8818 28.3716 25.8 28.4823L26.5526 28.9665C26.6527 28.827 26.7461 28.6815 26.8262 28.5246Z" fill="#5F2DEE"/>
<path d="M20.8122 22.8494C20.9682 22.7754 21.038 22.5908 20.9688 22.4325C20.9295 22.3425 20.902 22.2553 20.8662 22.1662L20.5012 22.8217C20.5914 22.8812 20.7069 22.8991 20.8122 22.8494Z" fill="#5F2DEE"/>
<path d="M22.4081 20.1952C22.6296 20.2849 22.884 20.1984 23.0034 19.9913C23.5235 19.0899 24.3944 18.7301 25.0506 18.7873C25.6451 18.8391 26.1011 19.217 26.3414 19.8418C26.4261 20.0625 26.6588 20.1888 26.8902 20.1393L26.8923 20.1388C27.178 20.0776 27.3466 19.7765 27.2426 19.503C26.8716 18.5274 26.1115 17.9133 25.1339 17.8284C24.2765 17.7537 23.4222 18.1055 22.7729 18.7413L22.1307 19.895C22.1727 20.0257 22.269 20.1391 22.4081 20.1952Z" fill="#5F2DEE"/>
<path d="M24.0867 23.0789C24.2701 23.0259 24.3878 22.8475 24.364 22.6584L24.3637 22.6565C24.3345 22.4222 24.1038 22.266 23.8769 22.3306C23.0665 22.5612 22.5201 23.1297 22.3838 23.9097C22.2223 24.8348 22.6848 25.8109 23.531 26.4087C23.7232 26.5443 23.9911 26.4753 24.0978 26.2658C24.1851 26.094 24.1334 25.8835 23.9751 25.7732C23.2864 25.2922 23.0577 24.5671 23.149 24.0435C23.2321 23.5688 23.5677 23.2284 24.0867 23.0789Z" fill="#5F2DEE"/>
<path d="M25.8868 23.8529C25.8307 23.9851 25.9063 24.1363 26.0453 24.1729C26.1591 24.2032 26.2782 24.1449 26.3238 24.0361C26.5222 23.5631 26.9257 23.3329 27.2502 23.32C27.5443 23.3084 27.7907 23.465 27.9471 23.7556C28.0023 23.8582 28.1239 23.9056 28.2339 23.867L28.235 23.8667C28.3711 23.8188 28.4347 23.661 28.3669 23.5339C28.1246 23.0798 27.7147 22.8267 27.2314 22.8457C26.6582 22.8684 26.1346 23.2705 25.8868 23.8529Z" fill="#5F2DEE"/>
<path d="M30.8931 25.7218V31.7592L33.1501 33.2114L30.8931 25.7218Z" fill="#5F2DEE"/>
<path d="M12.5792 28.201V26.8333H12.1274L7.79877 28.201H12.5792Z" fill="#5F2DEE"/>
<path d="M16.5695 28.324C16.406 27.0916 17.1801 25.7981 18.6933 24.7587L17.1261 25.2539C16.8467 25.5525 16.6076 25.8626 16.4209 26.1854C16.005 26.9038 15.8369 27.6725 15.9344 28.408C16.0341 29.1602 16.4099 29.877 17.0207 30.4815C17.0675 30.5277 17.1196 30.5703 17.1685 30.6149L17.422 29.9695C16.9489 29.4829 16.6495 28.927 16.5695 28.324Z" fill="#5F2DEE"/>
<path d="M28.9161 35.0817L29.557 34.7989V30.8994L28.9161 30.4872V35.0817Z" fill="#5F2DEE"/>
<path d="M25.8503 36.0738C25.185 36.1911 24.6431 35.9082 24.3979 35.5583C24.1755 35.2408 24.1732 34.8566 24.3837 34.4766C24.4581 34.3423 24.4238 34.1741 24.3028 34.0797L24.3016 34.0788C24.1521 33.9622 23.9321 34.0041 23.8395 34.1697C23.5093 34.7613 23.5209 35.3952 23.8863 35.9164C24.1938 36.3555 24.6963 36.6264 25.2549 36.6991L26.1984 36.2823C26.1497 36.1363 26.002 36.0471 25.8503 36.0738Z" fill="#5F2DEE"/>
<path d="M17.6909 38.8544L16.6058 37.9558L12.6495 42.2669L15.861 40.8486L17.6909 38.8544Z" fill="#5F2DEE"/>
<path d="M19.7397 26.0301C19.0882 26.2156 18.6486 26.6727 18.5391 27.2998C18.4091 28.0437 18.7811 28.8285 19.4617 29.309C19.616 29.4181 19.8315 29.3629 19.9172 29.1943C19.9876 29.0562 19.9459 28.8869 19.8187 28.7981C19.265 28.4115 19.0808 27.8284 19.1543 27.4075C19.2212 27.0257 19.491 26.752 19.9083 26.6317C20.0558 26.5892 20.1504 26.4458 20.1313 26.2935L20.1311 26.2921C20.1075 26.1038 19.9221 25.9781 19.7397 26.0301Z" fill="#5F2DEE"/>
<path d="M26.5526 28.9665L25.8 28.4823C25.3484 29.0913 24.7034 29.3654 24.1835 29.3496C23.6272 29.3327 23.1826 29.0047 22.9264 28.4353C22.8359 28.2345 22.6126 28.1291 22.3998 28.1872L22.3978 28.1878C22.1348 28.2596 21.9938 28.5491 22.1051 28.7981C22.5017 29.6869 23.2418 30.2188 24.1563 30.2467C25.0813 30.2751 25.9718 29.7749 26.5526 28.9665Z" fill="#5F2DEE"/>
<path d="M26.4854 31.1969L26.4843 31.196C26.3348 31.0794 26.1146 31.1214 26.0221 31.287C25.6919 31.8785 25.7035 32.5125 26.0688 33.0338C26.5022 33.6523 27.3198 33.9452 28.141 33.8048C28.3273 33.773 28.4408 33.5815 28.3825 33.4018C28.3348 33.2543 28.1857 33.164 28.033 33.191C27.3679 33.3083 26.8257 33.0254 26.5804 32.6755C26.3581 32.3581 26.3561 31.9738 26.5665 31.5938C26.6407 31.4596 26.6066 31.2913 26.4854 31.1969Z" fill="#5F2DEE"/>
<path d="M30.8931 31.7592V34.2086L33.1501 33.2114L30.8931 31.7592Z" fill="#5F2DEE"/>
<path d="M21.9001 36.6338C21.2691 35.3712 21.5589 33.7902 22.6701 32.3574C22.7755 32.2216 22.7563 32.0274 22.6255 31.9163C22.4864 31.7981 22.2768 31.8195 22.1651 31.9635C21.5756 32.7252 21.1819 33.5518 21.0202 34.3715C20.9714 34.6188 20.9439 34.8644 20.9373 35.106C20.2889 34.8964 19.6685 34.5298 19.191 34.0666C18.6868 33.5779 18.3946 33.0266 18.4286 32.6286C18.4729 32.1055 19.1053 31.9672 19.6282 31.9433C19.9827 31.9271 20.0517 31.4316 19.7148 31.3195C18.7386 30.994 17.9648 30.528 17.422 29.9695L17.1685 30.6149C17.5553 30.9672 18.0126 31.2769 18.5442 31.5354C18.4617 31.5748 18.3855 31.6192 18.3156 31.6687C18.0034 31.8888 17.8218 32.2019 17.7902 32.5743C17.739 33.1769 18.0871 33.8885 18.7451 34.5265C19.3579 35.1209 20.1428 35.5624 20.975 35.7852C21.0318 36.1835 21.1496 36.5651 21.3271 36.9203C21.5389 37.3445 21.8359 37.7226 22.2019 38.0476L22.8634 37.7554C22.4528 37.4493 22.1221 37.0779 21.9001 36.6338Z" fill="#5F2DEE"/>
<path d="M13.6379 43.271L12.6023 42.3185L11.4164 43.6108L12.5013 44.5096L13.6379 43.271Z" fill="#5F2DEE"/>
<path d="M34.7034 50.3662C34.5037 51.0692 33.8601 51.5871 33.094 51.5871H32.9426L29.9659 53.6516C30.1101 53.6691 30.2557 53.6801 30.4018 53.6768C30.3608 53.6784 30.3212 53.6852 30.2798 53.6852C30.1668 53.6852 30.0559 53.6779 29.9474 53.6647L29.2374 54.1571C29.5629 54.265 29.9147 54.3259 30.2798 54.3259C30.96 54.3259 31.6028 54.1289 32.0904 53.7714C32.6078 53.3919 32.8927 52.8777 32.8927 52.324C32.8927 52.2919 32.8917 52.2598 32.89 52.228H33.094C34.2403 52.228 35.1946 51.3913 35.3793 50.2968L35.385 50.2295C35.3946 50.1143 35.395 49.9986 35.3994 49.8832L34.7034 50.3662Z" fill="#5F2DEE"/>
<path d="M27.8464 51.5872H27.3285C26.5367 51.5872 25.8716 51.0359 25.6965 50.2968H28.5366L28.7276 49.5901H25.6514V48.2997H29.076L29.2502 47.6543H25.6514V46.2975H29.6165L29.7896 45.657H25.0107V49.9102L25.0261 50.0921C25.0802 50.7372 25.3928 51.3371 25.9026 51.736C26.2961 52.044 26.7912 52.228 27.3285 52.228H27.67C27.6679 52.2598 27.667 52.2919 27.667 52.324C27.667 52.5526 27.7181 52.7738 27.8115 52.9822L28.1883 51.5872H27.8464Z" fill="#5F2DEE"/>
<path d="M30.8931 34.2086V41.5707L33.1501 33.2114L30.8931 34.2086Z" fill="#5F2DEE"/>
<path d="M29.5569 43.0355V34.7989L28.9161 35.0817V43.9462H24.2213V39.0921C24.8247 39.2532 25.4905 39.334 26.2138 39.334C26.3116 39.334 26.4105 39.3326 26.5104 39.3297C26.6908 39.3242 26.831 39.1702 26.82 38.9901V38.9898C26.8097 38.8176 26.6648 38.684 26.4923 38.6891C26.4014 38.6918 26.3113 38.6932 26.2225 38.6932C24.8257 38.693 23.6764 38.3618 22.8634 37.7554L22.2019 38.0476C22.5235 38.3331 22.8979 38.578 23.3221 38.7719C23.4066 38.8107 23.493 38.8471 23.5807 38.8819V44.5867H30.0786L30.4975 43.0355H29.5569Z" fill="#5F2DEE"/>
<path d="M15.861 40.8486L12.6495 42.2669L12.6024 42.3185L13.638 43.271L15.861 40.8486Z" fill="#5F2DEE"/>
<path d="M25.9584 36.6876C26.1447 36.6558 26.2583 36.4645 26.1999 36.2848C26.1996 36.2839 26.1989 36.2832 26.1985 36.2823L25.2549 36.6991C25.4835 36.7286 25.7201 36.7284 25.9584 36.6876Z" fill="#5F2DEE"/>
<path d="M34.7709 46.2975V47.6543H29.2502L29.0759 48.2997H34.7709V49.5901H28.7276L28.5366 50.2968H34.726C34.7203 50.3209 34.71 50.3426 34.7034 50.3662L35.3994 49.8832C35.4031 49.7854 35.4117 49.6878 35.4117 49.5901V45.657H29.7896L29.6165 46.2975H34.7709Z" fill="#5F2DEE"/>
<path d="M30.8931 41.5707V43.0355H30.4975L30.0787 44.5867H37.3541V39.3603L33.1501 33.2114L30.8931 41.5707Z" fill="#5F2DEE"/>
<path d="M28.8483 53.2547C28.8469 53.2538 28.846 53.2527 28.8447 53.2515C28.8472 53.2533 28.8494 53.2552 28.8517 53.257C28.8508 53.2561 28.8494 53.2556 28.8483 53.2547ZM28.3075 52.324C28.3075 52.2919 28.3091 52.2598 28.3126 52.228C28.3099 52.28 28.3115 52.3303 28.3153 52.3798C28.3142 52.361 28.3075 52.3429 28.3075 52.324ZM29.0881 53.399C29.3471 53.5309 29.651 53.6136 29.9659 53.6516L32.9426 51.5871H28.1883L27.8115 52.9822C27.9446 53.2785 28.1656 53.5485 28.4695 53.7714C28.6951 53.937 28.9569 54.0639 29.2374 54.1571L29.9474 53.6647C29.6346 53.6264 29.3423 53.535 29.0881 53.399Z" fill="#5F2DEE"/>
<path d="M41.8978 14.8215L43.8064 14.8749L47.4783 11.101L46.4214 10.1725L41.8978 14.8215Z" fill="#5F2DEE"/>
<path d="M41.0607 15.6818L42.1179 16.6102L43.8063 14.8749L41.8978 14.8215L41.0607 15.6818Z" fill="#5F2DEE"/>
<path d="M45.9353 26.9246L46.725 28.201H48.2414L48.8625 26.8333H45.9353V26.9246Z" fill="#5F2DEE"/>
<path d="M42.9069 21.2414C42.2915 20.1615 41.5048 19.168 40.5818 18.2704L43.9964 23.7902C43.7307 22.9119 43.3718 22.0572 42.9069 21.2414Z" fill="#5F2DEE"/>
<path d="M45.9353 28.201H46.725L45.9353 26.9247V28.201Z" fill="#5F2DEE"/>
<path d="M42.4104 27.1879C42.4307 27.4402 42.2311 27.6559 41.978 27.6559H41.8119C41.5932 27.6559 41.4093 27.4931 41.3816 27.2762C40.878 23.3392 39.3831 20.6397 37.1879 18.9577L33.1501 33.2114L44.0399 30.5007C44.5543 28.7269 44.6546 26.8772 44.314 25.0556C44.2343 24.628 44.1226 24.2073 43.9964 23.7902L40.5818 18.2704C40.459 18.1511 40.3425 18.0274 40.2147 17.9118C39.5306 17.2927 38.771 16.7382 37.9581 16.2385L37.4457 18.0476C40.4341 20.0038 42.0769 23.0603 42.4104 27.1879Z" fill="#5F2DEE"/>
<path d="M43.2814 32.479C43.5961 31.8348 43.8452 31.1726 44.0399 30.5007L33.1501 33.2114L37.3541 39.3603V38.7182C38.704 37.8948 39.8929 36.945 40.8901 35.8931C41.8809 34.8478 42.6854 33.699 43.2814 32.479Z" fill="#5F2DEE"/>
<path d="M41.909 37.9558L40.8239 38.8544L43.1703 41.4115L43.7247 39.9345L41.909 37.9558Z" fill="#5F2DEE"/>
<path d="M46.0132 44.5096L46.324 44.2524L45.8893 44.3744L46.0132 44.5096Z" fill="#5F2DEE"/>
<path d="M43.7248 39.9345L43.1703 41.4115L45.8893 44.3744L46.324 44.2524L47.0983 43.6108L43.7248 39.9345Z" fill="#5F2DEE"/>
<path d="M53.8321 28.201V26.8333H48.8625L48.2414 28.201H53.8321Z" fill="#5F2DEE"/>
</svg>
