<svg width="58" height="58" viewBox="0 0 58 58" fill="none" xmlns="http://www.w3.org/2000/svg">
<mask id="path-1-inside-1_26_186" fill="white">
<path d="M23.8065 11.9355C21.0907 11.9355 18.4141 12.5837 15.9993 13.8262C13.5844 15.0687 11.5009 16.8696 9.92207 19.0792C8.3432 21.2889 7.31453 23.8435 6.92155 26.5307C6.52856 29.2179 6.78262 31.9601 7.66259 34.5293C8.54257 37.0986 10.0231 39.4207 11.981 41.3027C13.9389 43.1847 16.3178 44.5722 18.9198 45.3499C21.5219 46.1276 24.2719 46.273 26.9415 45.7741C29.611 45.2751 32.123 44.1463 34.2685 42.4813L32.3865 40.0561C30.6269 41.4216 28.5669 42.3474 26.3775 42.7566C24.1882 43.1658 21.9328 43.0465 19.7989 42.4087C17.6649 41.7709 15.714 40.633 14.1083 39.0896C12.5025 37.5461 11.2884 35.6417 10.5667 33.5346C9.84502 31.4276 9.63667 29.1787 9.95896 26.9749C10.2813 24.7711 11.1249 22.6761 12.4197 20.8639C13.7146 19.0517 15.4232 17.5748 17.4037 16.5558C19.3842 15.5368 21.5792 15.0052 23.8065 15.0052L23.8065 11.9355Z"/>
</mask>
<path d="M23.8065 11.9355C21.0907 11.9355 18.4141 12.5837 15.9993 13.8262C13.5844 15.0687 11.5009 16.8696 9.92207 19.0792C8.3432 21.2889 7.31453 23.8435 6.92155 26.5307C6.52856 29.2179 6.78262 31.9601 7.66259 34.5293C8.54257 37.0986 10.0231 39.4207 11.981 41.3027C13.9389 43.1847 16.3178 44.5722 18.9198 45.3499C21.5219 46.1276 24.2719 46.273 26.9415 45.7741C29.611 45.2751 32.123 44.1463 34.2685 42.4813L32.3865 40.0561C30.6269 41.4216 28.5669 42.3474 26.3775 42.7566C24.1882 43.1658 21.9328 43.0465 19.7989 42.4087C17.6649 41.7709 15.714 40.633 14.1083 39.0896C12.5025 37.5461 11.2884 35.6417 10.5667 33.5346C9.84502 31.4276 9.63667 29.1787 9.95896 26.9749C10.2813 24.7711 11.1249 22.6761 12.4197 20.8639C13.7146 19.0517 15.4232 17.5748 17.4037 16.5558C19.3842 15.5368 21.5792 15.0052 23.8065 15.0052L23.8065 11.9355Z" stroke="#5F2DEE" stroke-width="2.22581" mask="url(#path-1-inside-1_26_186)"/>
<circle cx="7.48386" cy="42.3548" r="2.41129" stroke="#5F2DEE" stroke-width="1.1129"/>
<circle cx="23.8065" cy="21.5806" r="2.41129" stroke="#5F2DEE" stroke-width="1.1129"/>
<circle cx="43.8386" cy="36.4194" r="1.66935" stroke="#5F2DEE" stroke-width="1.1129"/>
<circle cx="51.258" cy="19.3548" r="1.66935" stroke="#5F2DEE" stroke-width="1.1129"/>
<circle cx="45.4903" cy="7.8626" r="1.39695" stroke="#5F2DEE" stroke-width="0.9313"/>
<circle cx="7.30372" cy="50.6962" r="0.977865" transform="rotate(-180 7.30372 50.6962)" stroke="#5F2DEE" stroke-width="0.65191"/>
<circle cx="43.9691" cy="12.2087" r="0.908017" stroke="#5F2DEE" stroke-width="0.605345"/>
<circle cx="10.5572" cy="47.6539" r="0.635612" transform="rotate(-180 10.5572 47.6539)" stroke="#5F2DEE" stroke-width="0.423741"/>
<path d="M38.6608 7.8626H43.0068" stroke="#5F2DEE" stroke-width="0.620867" stroke-linecap="round"/>
<path d="M12.0846 50.6962L9.04235 50.6962" stroke="#5F2DEE" stroke-width="0.434606" stroke-linecap="round"/>
<path d="M39.53 12.2087H42.355" stroke="#5F2DEE" stroke-width="0.403563" stroke-linecap="round"/>
<path d="M13.6646 47.6539L11.6871 47.6539" stroke="#5F2DEE" stroke-width="0.282494" stroke-linecap="round"/>
<path d="M34.9354 7.8626H37.4189" stroke="#5F2DEE" stroke-width="0.620867" stroke-linecap="round"/>
<path d="M14.6923 50.6962L12.9538 50.6962" stroke="#5F2DEE" stroke-width="0.434606" stroke-linecap="round"/>
<path d="M37.1085 12.2087H38.7228" stroke="#5F2DEE" stroke-width="0.403563" stroke-linecap="round"/>
<path d="M15.3595 47.6539L14.2295 47.6539" stroke="#5F2DEE" stroke-width="0.282494" stroke-linecap="round"/>
<path d="M8.96777 40.871L23.0216 25.0604C23.4809 24.5437 24.2363 24.4126 24.8429 24.7445L42.1314 34.2042C42.8637 34.605 43.7823 34.3229 44.1637 33.5803L50.5162 21.2097" stroke="#5F2DEE" stroke-width="1.48387"/>
<mask id="path-19-inside-2_26_186" fill="white">
<path d="M35.8729 41.0664C38.1679 38.7715 39.7608 35.8696 40.4647 32.7013C41.1687 29.533 40.9545 26.2297 39.8474 23.1788C38.7402 20.1279 36.786 17.456 34.2139 15.4766C31.6419 13.4972 28.5586 12.2923 25.326 12.0033L25.0526 15.0608C27.7038 15.2978 30.2324 16.286 32.3417 17.9093C34.4511 19.5327 36.0538 21.7239 36.9618 24.226C37.8698 26.728 38.0454 29.4371 37.4681 32.0355C36.8908 34.6339 35.5844 37.0137 33.7023 38.8958L35.8729 41.0664Z"/>
</mask>
<path d="M35.8729 41.0664C38.1679 38.7715 39.7608 35.8696 40.4647 32.7013C41.1687 29.533 40.9545 26.2297 39.8474 23.1788C38.7402 20.1279 36.786 17.456 34.2139 15.4766C31.6419 13.4972 28.5586 12.2923 25.326 12.0033L25.0526 15.0608C27.7038 15.2978 30.2324 16.286 32.3417 17.9093C34.4511 19.5327 36.0538 21.7239 36.9618 24.226C37.8698 26.728 38.0454 29.4371 37.4681 32.0355C36.8908 34.6339 35.5844 37.0137 33.7023 38.8958L35.8729 41.0664Z" stroke="#5F2DEE" stroke-width="2.22581" mask="url(#path-19-inside-2_26_186)"/>
</svg>
